<svg width="234" height="84" viewBox="0 0 234 84" fill="none" xmlns="http://www.w3.org/2000/svg">
<path fill-rule="evenodd" clip-rule="evenodd" d="M86.523 3.40988C83.3731 5.29384 80.6869 7.32012 78.3907 9.43831C68.002 19.0217 66.021 30.1353 64.8208 36.8686C64.7752 37.1242 64.7308 37.3735 64.6871 37.6161C64.4365 39.0068 65.3606 40.3372 66.7512 40.5879C68.1419 40.8385 69.4724 39.9143 69.723 38.5236C69.7607 38.3144 69.7987 38.1018 69.8373 37.8861C71.0268 31.2396 72.7516 21.6021 81.8603 13.1994C86.5262 8.89521 93.2398 4.82348 103.031 1.71977C112.807 0.93654 122.218 0.566975 130.688 0.584075C189.98 12.2376 233.044 54.6499 233.371 65.3807C232.539 68.8148 221.7 67.4937 205.133 65.4743C180.268 62.4434 142.498 57.8397 106.292 65.3807C24.6483 93.2121 22.2995 88.9359 5.57981 58.4962C5.07901 57.5844 4.56532 56.6492 4.03622 55.6907C-6.32047 36.9282 9.67952 23.4877 35.169 14.5798C26.7484 34.5709 33.409 53.5893 38.9445 60.9011C39.7974 62.0277 41.4021 62.2495 42.5287 61.3966C43.6552 60.5437 43.8771 58.9391 43.0242 57.8125C38.0163 51.1975 31.3511 31.9865 41.8945 12.3969C47.2285 10.788 52.877 9.35362 58.7097 8.08756C56.8558 10.7315 55.33 13.4849 54.0873 16.277C48.3831 29.0932 48.7169 42.5344 50.1967 49.5611C50.4879 50.9438 51.8448 51.8286 53.2275 51.5374C54.6102 51.2462 55.4951 49.8893 55.2039 48.5066C53.9004 42.3169 53.5783 30.005 58.7622 18.3577C60.5927 14.2448 63.1191 10.1901 66.5671 6.50193C73.124 5.27416 79.8335 4.24617 86.523 3.40988Z" fill="#6FB827"/>
</svg>
