<svg width="232" height="98" viewBox="0 0 232 98" fill="none" xmlns="http://www.w3.org/2000/svg">
<path fill-rule="evenodd" clip-rule="evenodd" d="M53.3792 23.1852C52.2479 24.5358 51.2371 25.8901 50.3349 27.2437C42.4962 39.0048 43.189 50.2722 43.6088 57.0988C43.6247 57.3579 43.6403 57.6106 43.655 57.8568C43.739 59.2673 44.9506 60.3426 46.3611 60.2586C47.7717 60.1745 48.847 58.9629 48.7629 57.5524C48.7503 57.3401 48.7372 57.1246 48.7239 56.9059C48.3141 50.1662 47.72 40.3936 54.5929 30.0816C57.4569 25.7845 61.6742 21.3176 67.8771 16.9352C84.6964 10.163 102.142 4.68287 116.93 1.12976C177.299 -1.51255 229.143 29.5612 231.988 39.913C231.988 42.8072 225.216 41.4888 214.151 39.3348C191.43 34.9118 150.612 26.9657 113.173 44.7358C94.047 56.8966 79.4143 67.2478 67.8045 75.4607L67.8044 75.4607C33.9066 99.4402 25.7794 105.189 6.82495 84.5215C-2.87989 73.9394 -0.523989 62.8918 8.90683 52.3432C9.47841 68.9705 18.1582 81.6785 24.1221 86.5507C25.2164 87.4447 26.8282 87.2823 27.7222 86.188C28.6162 85.0937 28.4538 83.4819 27.3595 82.5879C21.8 78.0462 12.8132 64.632 14.1403 47.1579C18.3743 43.3883 23.4363 39.7059 29.0858 36.1572C28.789 37.3119 28.5372 38.4657 28.3269 39.6152C25.8025 53.4144 29.2932 66.3987 32.3867 72.879C32.9954 74.1542 34.5226 74.6945 35.7978 74.0858C37.073 73.477 37.6133 71.9498 37.0045 70.6746C34.2796 64.9663 31.0662 53.0767 33.3604 40.536C33.866 37.7724 34.6402 34.9671 35.7542 32.1798C41.2775 29.0442 47.2132 26.0343 53.3792 23.1852Z" fill="#4BA9FF"/>
</svg>
