<svg width="232" height="98" viewBox="0 0 232 98" fill="none" xmlns="http://www.w3.org/2000/svg">
<path fill-rule="evenodd" clip-rule="evenodd" d="M53.3001 23.1854C52.1688 24.5359 51.158 25.8902 50.2558 27.2437C42.4172 39.0048 43.11 50.2722 43.5298 57.0988L43.5298 57.0995C43.5457 57.3584 43.5613 57.6109 43.5759 57.8568C43.66 59.2673 44.8716 60.3426 46.2821 60.2586C47.6926 60.1745 48.7679 58.9629 48.6839 57.5524C48.6712 57.3401 48.6581 57.1246 48.6448 56.9059C48.2351 50.1662 47.641 40.3936 54.5138 30.0816C57.3778 25.7846 61.595 21.3178 67.7978 16.9354C84.6173 10.1631 102.063 4.6829 116.852 1.12976C177.221 -1.51255 229.064 29.5612 231.91 39.913C231.91 42.8072 225.137 41.4888 214.072 39.3348C191.352 34.9118 150.533 26.9657 113.094 44.7358C93.9682 56.8966 79.3354 67.2478 67.7257 75.4607L67.7256 75.4607C33.8278 99.4402 25.7006 105.189 6.74609 84.5215C-2.95869 73.9394 -0.602876 62.892 8.8278 52.3434C9.39944 68.9706 18.0792 81.6786 24.0431 86.5507C25.1374 87.4447 26.7492 87.2823 27.6432 86.188C28.5371 85.0937 28.3747 83.4819 27.2804 82.5879C21.721 78.0462 12.7342 64.6321 14.0613 47.1581C18.2952 43.3885 23.3572 39.7061 29.0068 36.1573C28.71 37.312 28.4581 38.4657 28.2478 39.6152C25.7234 53.4144 29.2142 66.3987 32.3076 72.879C32.9164 74.1542 34.4436 74.6945 35.7188 74.0858C36.994 73.477 37.5342 71.9498 36.9255 70.6746C34.2005 64.9663 30.9872 53.0767 33.2813 40.536C33.7869 37.7725 34.5611 34.9672 35.6751 32.1799C41.1984 29.0443 47.134 26.0344 53.3001 23.1854Z" fill="#FF4AAB"/>
</svg>
