<svg width="241" height="92" viewBox="0 0 241 92" fill="none" xmlns="http://www.w3.org/2000/svg">
<path fill-rule="evenodd" clip-rule="evenodd" d="M63.7978 14.5684C61.6692 16.7821 59.8881 19.0139 58.4019 21.2437C50.5632 33.0048 51.2561 44.2722 51.6758 51.0988C51.6918 51.3579 51.7073 51.6106 51.722 51.8568C51.806 53.2673 53.0176 54.3426 54.4281 54.2586C55.8387 54.1745 56.914 52.9629 56.8299 51.5524C56.8173 51.3401 56.8042 51.1246 56.7909 50.9059C56.3812 44.1662 55.787 34.3936 62.6599 24.0816C65.677 19.5548 70.1959 14.8396 76.9559 10.2333C86.78 7.07069 97.6787 3.70686 109.722 0.0881958C191.595 0.0882726 237.21 23.5612 240.056 33.913C240.164 34.3075 237.924 33.5697 233.855 32.2296C214.795 25.9518 155.602 6.45591 109.723 28.2316C97.2095 40.0091 86.9437 50.1395 78.3442 58.6255L78.3441 58.6256C42.108 94.3835 35.4576 100.946 14.8919 78.5215C-3.11008 58.8921 -5.98687 46.8437 18.2328 33.2082C13.0393 56.1316 24.7355 74.4613 32.1895 80.5507C33.2838 81.4447 34.8956 81.2823 35.7895 80.188C36.6835 79.0937 36.5211 77.4819 35.4268 76.5879C28.7303 71.1173 17.0611 52.7737 24.4339 29.9678C28.7694 27.8502 33.7518 25.6793 39.423 23.4232C37.9947 26.8019 37.0137 30.2271 36.3939 33.6152C33.8695 47.4145 37.3603 60.3987 40.4537 66.879C41.0624 68.1542 42.5897 68.6945 43.8648 68.0858C45.14 67.477 45.6803 65.9498 45.0716 64.6746C42.3466 58.9663 39.1332 47.0767 41.4274 34.536C42.2669 29.9474 43.8471 25.2435 46.4931 20.6985C51.7497 18.7315 57.5095 16.6947 63.7978 14.5684Z" fill="#7851CA"/>
</svg>
