<svg width="582" height="243" viewBox="0 0 582 243" fill="none" xmlns="http://www.w3.org/2000/svg">
<path fill-rule="evenodd" clip-rule="evenodd" d="M133.016 56.7653C130.174 60.1587 127.634 63.5616 125.367 66.9628C105.672 96.5138 107.412 124.824 108.467 141.977C108.507 142.628 108.546 143.263 108.583 143.882C108.794 147.426 111.838 150.128 115.383 149.916C118.927 149.705 121.629 146.661 121.417 143.117C121.386 142.583 121.353 142.042 121.319 141.492C120.29 124.558 118.797 100.003 136.066 74.0934C143.262 63.2963 153.859 52.0727 169.444 41.0614C211.705 24.0454 255.538 10.2759 292.696 1.34834C444.38 -5.29078 574.643 72.7857 581.793 98.7958C581.793 106.068 564.776 102.755 536.974 97.3429C479.886 86.2296 377.325 66.2642 283.255 110.914C235.199 141.469 198.433 167.477 169.262 188.113L169.262 188.113L169.261 188.114C84.0892 248.365 63.6687 262.81 16.0433 210.88C-8.34137 184.291 -2.42167 156.532 21.2747 130.027C22.7108 171.806 44.5197 203.736 59.505 215.978C62.2545 218.224 66.3043 217.816 68.5506 215.067C70.7967 212.317 70.3887 208.268 67.6391 206.021C53.6702 194.61 31.0898 160.905 34.4246 116.999C45.0627 107.528 57.7812 98.2754 71.9761 89.359C71.2303 92.2604 70.5975 95.1594 70.0692 98.0476C63.7262 132.72 72.4972 165.344 80.2699 181.627C81.7994 184.831 85.6367 186.188 88.8407 184.659C92.0448 183.129 93.4023 179.292 91.8728 176.088C85.026 161.745 76.952 131.871 82.7164 100.361C83.9867 93.4175 85.9321 86.3687 88.731 79.3653C102.609 71.4867 117.523 63.9239 133.016 56.7653Z" fill="#583B3B"/>
</svg>
