<svg width="246" height="190" viewBox="0 0 246 190" fill="none" xmlns="http://www.w3.org/2000/svg">
<g filter="url(#filter0_f_11_315)">
<path d="M224.326 107.169C201.392 123.582 187.309 137.972 128.408 137.687C69.5059 137.401 25.1529 110.045 25.2965 80.3868C25.4402 50.7285 47.1973 24.7251 106.099 25.0104C165.001 25.2957 206.12 46.1496 224.326 107.169Z" fill="url(#paint0_linear_11_315)" fill-opacity="0.73"/>
</g>
<path d="M37.1606 104.25C132.049 167.945 221.248 109.704 221.248 109.704" stroke="#1A1818" stroke-width="12.7926" stroke-linecap="round"/>
<path d="M13.446 122.969C11.1644 125.666 11.5011 129.702 14.198 131.984C16.8949 134.265 20.9308 133.929 23.2124 131.232L13.446 122.969ZM32.2609 100.73L13.446 122.969L23.2124 131.232L42.0272 108.992L32.2609 100.73Z" fill="#1A1818"/>
<path d="M244.608 130.871C246.8 133.641 246.33 137.664 243.56 139.855C240.789 142.047 236.767 141.578 234.575 138.807L244.608 130.871ZM226.534 108.024L244.608 130.871L234.575 138.807L216.502 115.961L226.534 108.024Z" fill="#1A1818"/>
<path d="M63.0919 153.339C61.8952 156.663 63.6195 160.328 66.9432 161.524C70.2669 162.721 73.9314 160.997 75.1281 157.673L63.0919 153.339ZM72.9602 125.931L63.0919 153.339L75.1281 157.673L84.9964 130.265L72.9602 125.931Z" fill="#1A1818"/>
<path d="M193.227 155.479C194.314 158.841 192.47 162.446 189.109 163.533C185.747 164.62 182.142 162.776 181.055 159.415L193.227 155.479ZM184.265 127.761L193.227 155.479L181.055 159.415L172.093 131.697L184.265 127.761Z" fill="#1A1818"/>
<path d="M119.936 166.069C119.858 169.6 122.658 172.527 126.19 172.605C129.721 172.683 132.648 169.883 132.726 166.351L119.936 166.069ZM120.58 136.945L119.936 166.069L132.726 166.351L133.37 137.228L120.58 136.945Z" fill="#1A1818"/>
<path d="M48.1579 45.8195C46.8349 40.2951 54.1543 37.0506 57.3592 41.7408L60.8908 46.9094C62.0883 48.6619 64.2434 49.4932 66.3076 48.9988L72.3953 47.5408C77.9197 46.2177 81.1643 53.5372 76.474 56.742L71.3055 60.2737C69.553 61.4712 68.7217 63.6262 69.2161 65.6904L70.6741 71.7782C71.9972 77.3026 64.6777 80.5471 61.4729 75.8569L57.9412 70.6883C56.7437 68.9358 54.5886 68.1045 52.5244 68.5989L46.4367 70.0569C40.9123 71.38 37.6677 64.0606 42.358 60.8557L47.5265 57.324C49.279 56.1266 50.1103 53.9715 49.616 51.9073L48.1579 45.8195Z" fill="white"/>
<defs>
<filter id="filter0_f_11_315" x="15.0621" y="14.774" width="219.498" height="133.151" filterUnits="userSpaceOnUse" color-interpolation-filters="sRGB">
<feFlood flood-opacity="0" result="BackgroundImageFix"/>
<feBlend mode="normal" in="SourceGraphic" in2="BackgroundImageFix" result="shape"/>
<feGaussianBlur stdDeviation="5.11703" result="effect1_foregroundBlur_11_315"/>
</filter>
<linearGradient id="paint0_linear_11_315" x1="117.431" y1="53.2073" x2="157.091" y2="133.496" gradientUnits="userSpaceOnUse">
<stop stop-color="#925FFF"/>
<stop offset="1" stop-color="#A3BDFF"/>
</linearGradient>
</defs>
</svg>
