<svg width="616" height="476" viewBox="0 0 616 476" fill="none" xmlns="http://www.w3.org/2000/svg">
<g filter="url(#filter0_f_0_50)">
<path d="M561.235 268.105C503.611 309.344 468.227 345.501 320.229 344.784C172.232 344.067 60.7894 275.331 61.1503 200.811C61.5113 126.292 116.179 60.955 264.176 61.6718C412.174 62.3887 515.491 114.787 561.235 268.105Z" fill="url(#paint0_linear_0_50)" fill-opacity="0.73"/>
</g>
<path d="M90.9595 260.772C329.378 420.813 553.5 274.474 553.5 274.474" stroke="#1A1818" stroke-width="32.1429" stroke-linecap="round"/>
<path d="M31.3743 307.805C25.6415 314.581 26.4874 324.722 33.2637 330.455C40.04 336.188 50.1807 335.342 55.9135 328.565L31.3743 307.805ZM78.6488 251.926L31.3743 307.805L55.9135 328.565L103.188 272.686L78.6488 251.926Z" fill="#1A1818"/>
<path d="M612.196 327.658C617.703 334.619 616.524 344.726 609.563 350.233C602.602 355.74 592.494 354.561 586.987 347.6L612.196 327.658ZM566.784 270.254L612.196 327.658L586.987 347.6L541.576 290.197L566.784 270.254Z" fill="#1A1818"/>
<path d="M156.115 384.114C153.108 392.465 157.441 401.672 165.792 404.679C174.143 407.686 183.351 403.353 186.358 395.002L156.115 384.114ZM180.91 315.247L156.115 384.114L186.358 395.002L211.153 326.136L180.91 315.247Z" fill="#1A1818"/>
<path d="M483.095 389.49C485.826 397.936 481.193 406.996 472.747 409.727C464.302 412.457 455.242 407.824 452.511 399.379L483.095 389.49ZM460.578 319.846L483.095 389.49L452.511 399.379L429.994 329.734L460.578 319.846Z" fill="#1A1818"/>
<path d="M298.943 416.097C298.747 424.971 305.782 432.324 314.655 432.52C323.529 432.716 330.882 425.682 331.078 416.808L298.943 416.097ZM300.561 342.921L298.943 416.097L331.078 416.808L332.696 343.631L300.561 342.921Z" fill="#1A1818"/>
<path d="M118.592 113.957C115.268 100.077 133.659 91.9242 141.711 103.709L150.585 116.696C153.594 121.099 159.009 123.188 164.195 121.946L179.491 118.282C193.372 114.958 201.525 133.349 189.74 141.401L176.753 150.275C172.35 153.284 170.261 158.699 171.503 163.885L175.167 179.181C178.491 193.062 160.1 201.214 152.047 189.43L143.174 176.443C140.165 172.04 134.75 169.951 129.564 171.193L114.267 174.856C100.387 178.181 92.2343 159.79 104.019 151.737L117.006 142.864C121.409 139.855 123.498 134.44 122.256 129.253L118.592 113.957Z" fill="white"/>
<defs>
<filter id="filter0_f_0_50" x="35.4352" y="35.9517" width="551.514" height="334.557" filterUnits="userSpaceOnUse" color-interpolation-filters="sRGB">
<feFlood flood-opacity="0" result="BackgroundImageFix"/>
<feBlend mode="normal" in="SourceGraphic" in2="BackgroundImageFix" result="shape"/>
<feGaussianBlur stdDeviation="12.8571" result="effect1_foregroundBlur_0_50"/>
</filter>
<linearGradient id="paint0_linear_0_50" x1="292.649" y1="132.52" x2="392.298" y2="334.255" gradientUnits="userSpaceOnUse">
<stop stop-color="#76BDFF"/>
<stop offset="1" stop-color="#FF4AAB" stop-opacity="0.38"/>
</linearGradient>
</defs>
</svg>
