<svg width="246" height="190" viewBox="0 0 246 190" fill="none" xmlns="http://www.w3.org/2000/svg">
<g filter="url(#filter0_f_11_295)">
<path d="M224.169 107.169C201.235 123.582 187.152 137.972 128.25 137.687C69.3487 137.401 24.9957 110.045 25.1393 80.3868C25.283 50.7285 47.0401 24.7251 105.942 25.0104C164.844 25.2957 205.963 46.1496 224.169 107.169Z" fill="url(#paint0_linear_11_295)" fill-opacity="0.73"/>
</g>
<path d="M37.0027 104.25C131.891 167.945 221.09 109.704 221.09 109.704" stroke="#1A1818" stroke-width="12.7926" stroke-linecap="round"/>
<path d="M13.2885 122.969C11.0069 125.666 11.3436 129.702 14.0405 131.984C16.7374 134.265 20.7733 133.929 23.0549 131.232L13.2885 122.969ZM32.1034 100.73L13.2885 122.969L23.0549 131.232L41.8698 108.992L32.1034 100.73Z" fill="#1A1818"/>
<path d="M244.451 130.871C246.642 133.641 246.173 137.664 243.403 139.855C240.632 142.047 236.61 141.578 234.418 138.807L244.451 130.871ZM226.377 108.024L244.451 130.871L234.418 138.807L216.344 115.961L226.377 108.024Z" fill="#1A1818"/>
<path d="M62.9347 153.339C61.738 156.663 63.4623 160.328 66.786 161.524C70.1097 162.721 73.7742 160.997 74.9709 157.673L62.9347 153.339ZM72.8029 125.931L62.9347 153.339L74.9709 157.673L84.8391 130.265L72.8029 125.931Z" fill="#1A1818"/>
<path d="M193.07 155.479C194.156 158.841 192.312 162.446 188.951 163.533C185.59 164.62 181.984 162.776 180.897 159.415L193.07 155.479ZM184.108 127.761L193.07 155.479L180.897 159.415L171.936 131.697L184.108 127.761Z" fill="#1A1818"/>
<path d="M119.779 166.069C119.701 169.6 122.501 172.527 126.032 172.605C129.564 172.683 132.49 169.883 132.568 166.351L119.779 166.069ZM120.423 136.945L119.779 166.069L132.568 166.351L133.212 137.228L120.423 136.945Z" fill="#1A1818"/>
<path d="M48.0002 45.8195C46.6771 40.2951 53.9966 37.0506 57.2014 41.7408L60.7331 46.9094C61.9306 48.6619 64.0857 49.4932 66.1499 48.9988L72.2376 47.5408C77.762 46.2177 81.0066 53.5372 76.3163 56.742L71.1478 60.2737C69.3953 61.4712 68.564 63.6262 69.0583 65.6904L70.5164 71.7782C71.8394 77.3026 64.52 80.5471 61.3151 75.8569L57.7835 70.6883C56.586 68.9358 54.4309 68.1045 52.3667 68.5989L46.279 70.0569C40.7546 71.38 37.51 64.0606 42.2003 60.8557L47.3688 57.324C49.1213 56.1266 49.9526 53.9715 49.4582 51.9073L48.0002 45.8195Z" fill="white"/>
<defs>
<filter id="filter0_f_11_295" x="14.9048" y="14.774" width="219.498" height="133.151" filterUnits="userSpaceOnUse" color-interpolation-filters="sRGB">
<feFlood flood-opacity="0" result="BackgroundImageFix"/>
<feBlend mode="normal" in="SourceGraphic" in2="BackgroundImageFix" result="shape"/>
<feGaussianBlur stdDeviation="5.11703" result="effect1_foregroundBlur_11_295"/>
</filter>
<linearGradient id="paint0_linear_11_295" x1="117.274" y1="53.2073" x2="156.933" y2="133.496" gradientUnits="userSpaceOnUse">
<stop stop-color="#69B7FF"/>
<stop offset="1" stop-color="#EACFFF"/>
</linearGradient>
</defs>
</svg>
