<svg width="246" height="190" viewBox="0 0 246 190" fill="none" xmlns="http://www.w3.org/2000/svg">
<g filter="url(#filter0_f_11_305)">
<path d="M224.247 107.169C201.314 123.582 187.231 137.972 128.329 137.687C69.4273 137.401 25.0743 110.045 25.2179 80.3868C25.3616 50.7285 47.1187 24.7251 106.02 25.0104C164.922 25.2957 206.042 46.1496 224.247 107.169Z" fill="url(#paint0_linear_11_305)" fill-opacity="0.73"/>
</g>
<path d="M37.0815 104.25C131.97 167.945 221.169 109.704 221.169 109.704" stroke="#1A1818" stroke-width="12.7926" stroke-linecap="round"/>
<path d="M13.3671 122.969C11.0855 125.666 11.4222 129.702 14.1191 131.984C16.816 134.265 20.8519 133.929 23.1335 131.232L13.3671 122.969ZM32.182 100.73L13.3671 122.969L23.1335 131.232L41.9484 108.992L32.182 100.73Z" fill="#1A1818"/>
<path d="M244.529 130.871C246.721 133.641 246.252 137.664 243.481 139.855C240.711 142.047 236.688 141.578 234.497 138.807L244.529 130.871ZM226.456 108.024L244.529 130.871L234.497 138.807L216.423 115.961L226.456 108.024Z" fill="#1A1818"/>
<path d="M63.0133 153.339C61.8166 156.663 63.5409 160.328 66.8646 161.524C70.1883 162.721 73.8528 160.997 75.0495 157.673L63.0133 153.339ZM72.8816 125.931L63.0133 153.339L75.0495 157.673L84.9178 130.265L72.8816 125.931Z" fill="#1A1818"/>
<path d="M193.148 155.479C194.235 158.841 192.391 162.446 189.03 163.533C185.669 164.62 182.063 162.776 180.976 159.415L193.148 155.479ZM184.186 127.761L193.148 155.479L180.976 159.415L172.014 131.697L184.186 127.761Z" fill="#1A1818"/>
<path d="M119.858 166.069C119.779 169.6 122.579 172.527 126.111 172.605C129.643 172.683 132.569 169.883 132.647 166.351L119.858 166.069ZM120.502 136.945L119.858 166.069L132.647 166.351L133.291 137.228L120.502 136.945Z" fill="#1A1818"/>
<path d="M48.0791 45.8195C46.756 40.2951 54.0755 37.0506 57.2803 41.7408L60.812 46.9094C62.0095 48.6619 64.1645 49.4932 66.2287 48.9988L72.3165 47.5408C77.8409 46.2177 81.0854 53.5372 76.3952 56.742L71.2266 60.2737C69.4741 61.4712 68.6428 63.6262 69.1372 65.6904L70.5952 71.7782C71.9183 77.3026 64.5988 80.5471 61.394 75.8569L57.8623 70.6883C56.6648 68.9358 54.5098 68.1045 52.4456 68.5989L46.3578 70.0569C40.8334 71.38 37.5889 64.0606 42.2791 60.8557L47.4477 57.324C49.2002 56.1266 50.0315 53.9715 49.5371 51.9073L48.0791 45.8195Z" fill="white"/>
<defs>
<filter id="filter0_f_11_305" x="14.9835" y="14.774" width="219.498" height="133.151" filterUnits="userSpaceOnUse" color-interpolation-filters="sRGB">
<feFlood flood-opacity="0" result="BackgroundImageFix"/>
<feBlend mode="normal" in="SourceGraphic" in2="BackgroundImageFix" result="shape"/>
<feGaussianBlur stdDeviation="5.11703" result="effect1_foregroundBlur_11_305"/>
</filter>
<linearGradient id="paint0_linear_11_305" x1="117.352" y1="53.2073" x2="157.012" y2="133.496" gradientUnits="userSpaceOnUse">
<stop stop-color="#75D75D"/>
<stop offset="1" stop-color="#FFE459"/>
</linearGradient>
</defs>
</svg>
