<svg width="246" height="190" viewBox="0 0 246 190" fill="none" xmlns="http://www.w3.org/2000/svg">
<g filter="url(#filter0_f_11_241)">
<path d="M224.09 107.169C201.156 123.582 187.073 137.972 128.172 137.687C69.2698 137.401 24.9168 110.045 25.0605 80.3868C25.2041 50.7285 46.9612 24.7251 105.863 25.0104C164.765 25.2957 205.884 46.1496 224.09 107.169Z" fill="url(#paint0_linear_11_241)" fill-opacity="0.73"/>
</g>
<path d="M36.9241 104.25C131.813 167.945 221.011 109.704 221.011 109.704" stroke="#1A1818" stroke-width="12.7926" stroke-linecap="round"/>
<path d="M13.2097 122.969C10.9281 125.666 11.2647 129.702 13.9616 131.984C16.6586 134.265 20.6944 133.929 22.9761 131.232L13.2097 122.969ZM32.0245 100.73L13.2097 122.969L22.9761 131.232L41.7909 108.992L32.0245 100.73Z" fill="#1A1818"/>
<path d="M244.372 130.871C246.564 133.641 246.094 137.664 243.324 139.855C240.553 142.047 236.531 141.578 234.339 138.807L244.372 130.871ZM226.298 108.024L244.372 130.871L234.339 138.807L216.266 115.961L226.298 108.024Z" fill="#1A1818"/>
<path d="M62.8558 153.339C61.6591 156.663 63.3834 160.328 66.7071 161.524C70.0308 162.721 73.6953 160.997 74.892 157.673L62.8558 153.339ZM72.7241 125.931L62.8558 153.339L74.892 157.673L84.7603 130.265L72.7241 125.931Z" fill="#1A1818"/>
<path d="M192.991 155.479C194.077 158.841 192.234 162.446 188.872 163.533C185.511 164.62 181.905 162.776 180.819 159.415L192.991 155.479ZM184.029 127.761L192.991 155.479L180.819 159.415L171.857 131.697L184.029 127.761Z" fill="#1A1818"/>
<path d="M119.7 166.069C119.622 169.6 122.422 172.527 125.953 172.605C129.485 172.683 132.411 169.883 132.49 166.351L119.7 166.069ZM120.344 136.945L119.7 166.069L132.49 166.351L133.133 137.228L120.344 136.945Z" fill="#1A1818"/>
<path d="M47.9216 45.8195C46.5985 40.2951 53.918 37.0506 57.1228 41.7408L60.6545 46.9094C61.852 48.6619 64.0071 49.4932 66.0712 48.9988L72.159 47.5408C77.6834 46.2177 80.928 53.5372 76.2377 56.742L71.0692 60.2737C69.3167 61.4712 68.4854 63.6262 68.9797 65.6904L70.4377 71.7782C71.7608 77.3026 64.4414 80.5471 61.2365 75.8569L57.7049 70.6883C56.5074 68.9358 54.3523 68.1045 52.2881 68.5989L46.2004 70.0569C40.676 71.38 37.4314 64.0606 42.1217 60.8557L47.2902 57.324C49.0427 56.1266 49.874 53.9715 49.3796 51.9073L47.9216 45.8195Z" fill="white"/>
<defs>
<filter id="filter0_f_11_241" x="14.826" y="14.774" width="219.498" height="133.151" filterUnits="userSpaceOnUse" color-interpolation-filters="sRGB">
<feFlood flood-opacity="0" result="BackgroundImageFix"/>
<feBlend mode="normal" in="SourceGraphic" in2="BackgroundImageFix" result="shape"/>
<feGaussianBlur stdDeviation="5.11703" result="effect1_foregroundBlur_11_241"/>
</filter>
<linearGradient id="paint0_linear_11_241" x1="117.195" y1="53.2073" x2="156.854" y2="133.496" gradientUnits="userSpaceOnUse">
<stop stop-color="#FF4AAB"/>
<stop offset="1" stop-color="#DEEEFD" stop-opacity="0.82"/>
</linearGradient>
</defs>
</svg>
