<svg width="1031" height="1035" viewBox="0 0 1031 1035" fill="none" xmlns="http://www.w3.org/2000/svg">
<path d="M813.057 459.579C817.189 373.59 733.754 310.218 652.027 337.273V337.273C641.485 340.762 630.518 342.804 619.426 343.342L598.056 344.378C555.949 346.419 517.832 369.915 497.089 406.616L478.205 440.027L438.589 528.579C424.532 560 388.718 575.378 356.254 563.932L267.084 532.49C239.569 522.789 214.879 552.627 229.559 577.84V577.84C245.392 605.034 215.777 635.998 187.905 621.391L91.2405 570.73C67.1791 558.12 38.3289 575.572 38.3289 602.738V602.738C38.329 613.949 43.5324 624.525 52.414 631.366L200.527 745.454C234.003 771.24 282.516 761.75 303.808 725.251V725.251C321.587 694.775 359.252 682.273 391.726 696.067L444.533 718.499C489.769 737.714 541.316 710.987 551.678 662.945L553.055 656.558C565.614 598.33 637.895 577.445 679.575 620.001V620.001C725.247 666.633 804.556 636.464 807.69 571.267L813.057 459.579Z" fill="url(#paint0_linear_11_429)"/>
<path d="M732.075 358.003C673.239 336.255 709.058 375.913 638.699 375.913C513.331 370.796 521.007 420.687 500.529 475.695C480.051 530.703 473.814 571.267 414.828 593.387C394.36 601.062 379.009 606.655 326.56 579.315C206.309 516.631 276.531 595.556 249.804 644.557C213.985 699.565 132.112 624.089 65.5908 580.594" stroke="#362260" stroke-opacity="0.43" stroke-width="10.2341"/>
<path d="M755.101 401.618C696.265 379.87 813.957 443.713 743.598 443.713C618.23 438.596 553.583 443.713 532.52 519.19C511.457 594.666 460.882 622.929 460.882 622.929C460.882 622.929 399.645 661.929 349.586 622.929C257.48 551.171 298.278 631.375 271.551 680.376C230.615 727.709 155.139 667.703 88.6174 624.209" stroke="#362260" stroke-opacity="0.43" stroke-width="10.2341"/>
<path d="M798.596 465.58C739.76 443.833 909.901 680.376 756.39 634.323C660.446 528.144 591.366 515.352 561.943 562.684C532.52 610.017 518.448 675.259 495.422 686.772C472.119 698.423 427.491 684.921 373.892 659.908C297.137 624.089 322.722 656.07 286.903 711.078C251.083 766.086 187.12 717.474 120.599 673.98" stroke="#362260" stroke-opacity="0.43" stroke-width="10.2341"/>
<defs>
<linearGradient id="paint0_linear_11_429" x1="716.734" y1="494.764" x2="-22.6779" y2="719.913" gradientUnits="userSpaceOnUse">
<stop stop-color="#C4EAFF"/>
<stop offset="0.2" stop-color="#8E5CF8" stop-opacity="0.72"/>
<stop offset="0.4" stop-color="#5179C7" stop-opacity="0.72"/>
<stop offset="0.6" stop-color="#CCB6FC" stop-opacity="0.91"/>
<stop offset="0.8" stop-color="#AA69FB"/>
<stop offset="1" stop-color="#1A4267" stop-opacity="0.11"/>
</linearGradient>
</defs>
</svg>
