<svg width="1189" height="1157" viewBox="0 0 1189 1157" fill="none" xmlns="http://www.w3.org/2000/svg">
<path d="M970.145 581.579C974.277 495.59 890.841 432.219 809.114 459.273V459.273C798.572 462.763 787.605 464.804 776.514 465.342L755.144 466.378C713.037 468.419 674.919 491.916 654.177 528.616L635.293 562.027L595.677 650.579C581.62 682 545.805 697.378 513.342 685.932L428.125 655.885C399.258 645.706 373.355 677.011 388.756 703.463V703.463C404.955 731.285 375.677 763.41 346.475 749.855L225.43 693.667C194.366 679.247 168.515 721.323 195.417 742.517V742.517L357.615 867.454C391.091 893.24 439.604 883.75 460.896 847.251V847.251C478.675 816.776 516.34 804.273 548.814 818.067L601.621 840.499C646.856 859.714 698.404 832.987 708.766 784.945L710.143 778.558C722.702 720.33 794.982 699.445 836.663 742.001V742.001C882.334 788.633 961.644 758.464 964.777 693.268L970.145 581.579Z" fill="url(#paint0_linear_11_436)"/>
<path d="M889.163 480.003C830.327 458.255 866.146 497.913 795.787 497.913C670.419 492.796 678.095 542.687 657.617 597.695C637.139 652.703 630.902 693.267 571.916 715.387C551.448 723.062 536.097 728.655 483.648 701.315C363.397 638.631 433.619 717.556 406.892 766.557C371.073 821.565 289.2 746.089 222.679 702.594" stroke="#355573" stroke-opacity="0.5" stroke-width="10.2341"/>
<path d="M912.189 523.618C853.353 501.87 971.045 565.713 900.686 565.713C775.319 560.596 710.671 565.713 689.608 641.19C668.545 716.666 617.97 744.929 617.97 744.929C617.97 744.929 556.734 783.929 506.674 744.929C414.568 673.171 455.366 753.375 428.64 802.376C387.703 849.709 312.227 789.703 245.706 746.209" stroke="#355573" stroke-opacity="0.5" stroke-width="10.2341"/>
<path d="M955.684 587.581C896.848 565.833 1066.99 802.376 913.478 756.323C817.534 650.144 748.454 637.352 719.031 684.684C689.608 732.017 675.536 797.259 652.51 808.773C629.207 820.424 584.579 806.921 530.98 781.908C454.225 746.089 479.81 778.071 443.991 833.078C408.171 888.086 344.208 839.475 277.687 795.98" stroke="#355573" stroke-opacity="0.5" stroke-width="10.2341"/>
<defs>
<linearGradient id="paint0_linear_11_436" x1="873.821" y1="616.764" x2="134.41" y2="841.913" gradientUnits="userSpaceOnUse">
<stop stop-color="#9CF9FF"/>
<stop offset="0.20021" stop-color="#94CCFF" stop-opacity="0.66288"/>
<stop offset="0.36538" stop-color="#555CA3"/>
<stop offset="0.490868" stop-color="#98CEFF" stop-opacity="0.578607"/>
<stop offset="0.578803" stop-color="#AFFFFA" stop-opacity="0.8"/>
<stop offset="0.814423" stop-color="#4C3493" stop-opacity="0.81"/>
</linearGradient>
</defs>
</svg>
