<svg width="574" height="420" viewBox="0 0 574 420" fill="none" xmlns="http://www.w3.org/2000/svg">
<path d="M663.079 108.401C667.211 22.4115 583.775 -40.9599 502.049 -13.9055V-13.9055C491.507 -10.4158 480.539 -8.37404 469.448 -7.83633L448.078 -6.80034C405.971 -4.75901 367.853 18.7372 347.111 55.4377L328.227 88.8484L288.611 177.401C274.554 208.822 238.739 224.2 206.276 212.753L121.059 182.706C92.1922 172.528 66.2886 203.833 81.6899 230.284V230.284C97.8891 258.106 68.6108 290.232 39.4092 276.677L-81.6363 220.488C-112.7 206.069 -138.551 248.145 -111.649 269.339V269.339L50.5493 394.276C84.0253 420.061 132.538 410.572 153.83 374.073V374.073C171.609 343.597 209.274 331.094 241.748 344.889L294.555 367.321C339.79 386.536 391.338 359.809 401.7 311.766L403.077 305.38C415.636 247.151 487.916 226.266 529.597 268.823V268.823C575.269 315.454 654.578 285.286 657.711 220.089L663.079 108.401Z" fill="url(#paint0_linear_11_443)"/>
<path d="M582.097 6.8247C523.261 -14.923 559.08 24.7345 488.721 24.7342C363.353 19.6172 371.029 69.5082 350.551 124.516C330.073 179.525 323.836 220.089 264.851 242.208C244.382 249.884 229.031 255.477 176.582 228.136C56.3315 165.453 126.553 244.377 99.8261 293.379C64.007 348.386 -17.8655 272.91 -84.387 229.416" stroke="#3A7146" stroke-opacity="0.5" stroke-width="10.2341"/>
<path d="M605.124 50.4391C546.287 28.6914 663.979 92.5349 593.62 92.5346C468.253 87.4176 403.605 92.5346 382.542 168.011C361.479 243.488 310.904 271.751 310.904 271.751C310.904 271.751 249.668 310.751 199.608 271.751C107.502 199.993 148.3 280.196 121.574 329.198C80.6373 376.53 5.16108 316.525 -61.3604 273.03" stroke="#3A7146" stroke-opacity="0.5" stroke-width="10.2341"/>
<path d="M648.618 114.402C589.782 92.6544 759.924 329.197 606.413 283.144C510.468 176.966 441.388 164.173 411.965 211.506C382.542 258.838 368.47 324.081 345.444 335.594C322.142 347.245 277.513 333.742 223.914 308.729C147.159 272.91 172.744 304.892 136.925 359.9C101.106 414.908 37.1425 366.296 -29.3789 322.801" stroke="#3A7146" stroke-opacity="0.5" stroke-width="10.2341"/>
<defs>
<linearGradient id="paint0_linear_11_443" x1="566.756" y1="143.585" x2="-172.656" y2="368.735" gradientUnits="userSpaceOnUse">
<stop stop-color="#90E87A"/>
<stop offset="0.20021" stop-color="#A8B847"/>
<stop offset="0.36538" stop-color="#49A191" stop-opacity="0.94"/>
<stop offset="0.490868" stop-color="#C5F049"/>
<stop offset="0.578803" stop-color="#B1FFAF" stop-opacity="0.8"/>
<stop offset="0.814423" stop-color="#1A4267" stop-opacity="0.11"/>
</linearGradient>
</defs>
</svg>
