<svg width="1189" height="1157" viewBox="0 0 1189 1157" fill="none" xmlns="http://www.w3.org/2000/svg">
<path d="M970.189 581.579C974.321 495.59 890.886 432.219 809.159 459.273V459.273C798.617 462.763 787.65 464.804 776.558 465.342L755.188 466.378C713.081 468.419 674.963 491.916 654.221 528.616L635.337 562.027L595.721 650.579C581.664 682 545.849 697.378 513.386 685.932L428.169 655.885C399.302 645.706 373.399 677.011 388.8 703.463V703.463C404.999 731.285 375.721 763.41 346.519 749.855L225.474 693.667C194.41 679.247 168.56 721.323 195.461 742.517V742.517L357.659 867.454C391.135 893.24 439.648 883.75 460.94 847.251V847.251C478.719 816.776 516.384 804.273 548.858 818.067L601.665 840.499C646.901 859.714 698.448 832.987 708.81 784.945L710.187 778.558C722.746 720.33 795.026 699.445 836.707 742.001V742.001C882.379 788.633 961.688 758.464 964.821 693.268L970.189 581.579Z" fill="url(#paint0_linear_11_450)"/>
<path d="M889.207 480.003C830.371 458.255 866.19 497.913 795.831 497.913C670.463 492.796 678.139 542.687 657.661 597.695C637.183 652.703 630.946 693.267 571.96 715.387C551.492 723.062 536.141 728.655 483.692 701.315C363.441 638.631 433.663 717.556 406.936 766.557C371.117 821.565 289.244 746.089 222.723 702.594" stroke="#6F1D49" stroke-opacity="0.35" stroke-width="10.2341"/>
<path d="M912.234 523.618C853.397 501.87 971.089 565.713 900.73 565.713C775.363 560.596 710.716 565.713 689.652 641.19C668.589 716.666 618.014 744.929 618.014 744.929C618.014 744.929 556.778 783.929 506.718 744.929C414.612 673.171 455.41 753.375 428.684 802.376C387.747 849.709 312.271 789.703 245.75 746.209" stroke="#6F1D49" stroke-opacity="0.35" stroke-width="10.2341"/>
<path d="M955.728 587.581C896.892 565.833 1067.03 802.376 913.523 756.323C817.578 650.144 748.498 637.352 719.075 684.684C689.652 732.017 675.581 797.259 652.554 808.773C629.252 820.424 584.623 806.921 531.024 781.908C454.269 746.089 479.854 778.071 444.035 833.078C408.216 888.086 344.253 839.475 277.731 795.98" stroke="#6F1D49" stroke-opacity="0.35" stroke-width="10.2341"/>
<defs>
<linearGradient id="paint0_linear_11_450" x1="873.866" y1="616.764" x2="134.454" y2="841.913" gradientUnits="userSpaceOnUse">
<stop stop-color="#FFAFAF"/>
<stop offset="0.20021" stop-color="#FF4AAB" stop-opacity="0.83"/>
<stop offset="0.36538" stop-color="#A52AB0" stop-opacity="0.78"/>
<stop offset="0.490868" stop-color="#FFADC1" stop-opacity="0.96"/>
<stop offset="0.578803" stop-color="#E65DA7"/>
<stop offset="0.814423" stop-color="#F478FF"/>
</linearGradient>
</defs>
</svg>
