<svg width="574" height="420" viewBox="0 0 574 420" fill="none" xmlns="http://www.w3.org/2000/svg">
<path d="M663.035 108.401C667.167 22.4115 583.732 -40.9599 502.005 -13.9055V-13.9055C491.463 -10.4158 480.495 -8.37404 469.404 -7.83633L448.034 -6.80034C405.927 -4.75901 367.809 18.7372 347.067 55.4377L328.183 88.8484L288.567 177.401C274.51 208.822 238.695 224.2 206.232 212.753L121.015 182.706C92.1483 172.528 66.2446 203.833 81.646 230.284V230.284C97.8452 258.106 68.5668 290.232 39.3652 276.677L-81.6802 220.488C-112.744 206.069 -138.595 248.145 -111.693 269.339V269.339L50.5053 394.276C83.9813 420.061 132.494 410.572 153.786 374.073V374.073C171.565 343.597 209.23 331.094 241.704 344.889L294.511 367.321C339.747 386.536 391.294 359.809 401.656 311.766L403.033 305.38C415.592 247.151 487.872 226.266 529.553 268.823V268.823C575.225 315.454 654.534 285.286 657.667 220.089L663.035 108.401Z" fill="url(#paint0_linear_11_429)"/>
<path d="M582.053 6.8247C523.217 -14.923 559.036 24.7345 488.677 24.7342C363.309 19.6172 370.985 69.5082 350.507 124.516C330.029 179.525 323.792 220.089 264.807 242.208C244.338 249.884 228.987 255.477 176.538 228.136C56.2874 165.453 126.509 244.377 99.7821 293.379C63.9629 348.386 -17.9096 272.91 -84.431 229.416" stroke="#362260" stroke-opacity="0.43" stroke-width="10.2341"/>
<path d="M605.08 50.4391C546.243 28.6914 663.935 92.5349 593.576 92.5346C468.209 87.4176 403.561 92.5346 382.498 168.011C361.435 243.488 310.86 271.751 310.86 271.751C310.86 271.751 249.624 310.751 199.564 271.751C107.458 199.993 148.256 280.196 121.53 329.198C80.5933 376.53 5.11702 316.525 -61.4044 273.03" stroke="#362260" stroke-opacity="0.43" stroke-width="10.2341"/>
<path d="M648.574 114.402C589.738 92.6544 759.88 329.197 606.369 283.144C510.424 176.966 441.344 164.173 411.921 211.506C382.498 258.838 368.427 324.081 345.4 335.594C322.098 347.245 277.469 333.742 223.87 308.729C147.115 272.91 172.7 304.892 136.881 359.9C101.062 414.908 37.0986 366.296 -29.4229 322.801" stroke="#362260" stroke-opacity="0.43" stroke-width="10.2341"/>
<defs>
<linearGradient id="paint0_linear_11_429" x1="566.712" y1="143.585" x2="-172.7" y2="368.735" gradientUnits="userSpaceOnUse">
<stop stop-color="#C4EAFF"/>
<stop offset="0.2" stop-color="#8E5CF8" stop-opacity="0.72"/>
<stop offset="0.4" stop-color="#5179C7" stop-opacity="0.72"/>
<stop offset="0.6" stop-color="#CCB6FC" stop-opacity="0.91"/>
<stop offset="0.8" stop-color="#AA69FB"/>
<stop offset="1" stop-color="#1A4267" stop-opacity="0.11"/>
</linearGradient>
</defs>
</svg>
