<svg width="574" height="420" viewBox="0 0 574 420" fill="none" xmlns="http://www.w3.org/2000/svg">
<path d="M663.167 108.401C667.299 22.4115 583.864 -40.9599 502.137 -13.9055V-13.9055C491.595 -10.4158 480.628 -8.37404 469.536 -7.83633L448.166 -6.80034C406.059 -4.75901 367.941 18.7372 347.199 55.4377L328.315 88.8484L288.699 177.401C274.642 208.822 238.827 224.2 206.364 212.753L121.147 182.706C92.2803 172.528 66.3767 203.833 81.7781 230.284V230.284C97.9773 258.106 68.6989 290.232 39.4973 276.677L-81.5481 220.488C-112.612 206.069 -138.462 248.145 -111.561 269.339V269.339L50.6374 394.276C84.1134 420.061 132.626 410.572 153.918 374.073V374.073C171.697 343.597 209.362 331.094 241.836 344.889L294.643 367.321C339.879 386.536 391.426 359.809 401.788 311.766L403.165 305.38C415.724 247.151 488.005 226.266 529.685 268.823V268.823C575.357 315.454 654.666 285.286 657.799 220.089L663.167 108.401Z" fill="url(#paint0_linear_11_450)"/>
<path d="M582.185 6.8247C523.349 -14.923 559.168 24.7345 488.809 24.7342C363.441 19.6172 371.117 69.5082 350.639 124.516C330.161 179.525 323.924 220.089 264.938 242.208C244.47 249.884 229.119 255.477 176.67 228.136C56.4193 165.453 126.641 244.377 99.914 293.379C64.0949 348.386 -17.7776 272.91 -84.2991 229.416" stroke="#6F1D49" stroke-opacity="0.35" stroke-width="10.2341"/>
<path d="M605.212 50.4391C546.376 28.6914 664.067 92.5349 593.708 92.5346C468.341 87.4176 403.694 92.5346 382.63 168.011C361.567 243.488 310.992 271.751 310.992 271.751C310.992 271.751 249.756 310.751 199.696 271.751C107.59 199.993 148.388 280.196 121.662 329.198C80.7255 376.53 5.24922 316.525 -61.2722 273.03" stroke="#6F1D49" stroke-opacity="0.35" stroke-width="10.2341"/>
<path d="M648.706 114.402C589.87 92.6544 760.012 329.197 606.501 283.144C510.556 176.966 441.476 164.173 412.053 211.506C382.63 258.838 368.559 324.081 345.532 335.594C322.23 347.245 277.601 333.742 224.002 308.729C147.247 272.91 172.832 304.892 137.013 359.9C101.194 414.908 37.2307 366.296 -29.2908 322.801" stroke="#6F1D49" stroke-opacity="0.35" stroke-width="10.2341"/>
<defs>
<linearGradient id="paint0_linear_11_450" x1="566.844" y1="143.585" x2="-172.568" y2="368.735" gradientUnits="userSpaceOnUse">
<stop stop-color="#FFAFAF"/>
<stop offset="0.20021" stop-color="#FF4AAB" stop-opacity="0.83"/>
<stop offset="0.36538" stop-color="#A52AB0" stop-opacity="0.78"/>
<stop offset="0.490868" stop-color="#FFADC1" stop-opacity="0.96"/>
<stop offset="0.578803" stop-color="#E65DA7"/>
<stop offset="0.814423" stop-color="#F478FF"/>
</linearGradient>
</defs>
</svg>
