<svg width="1055" height="1054" viewBox="0 0 1055 1054" fill="none" xmlns="http://www.w3.org/2000/svg">
<path d="M836.1 478.579C840.233 392.59 756.797 329.219 675.07 356.273V356.273C664.528 359.763 653.561 361.804 642.469 362.342L621.1 363.378C578.992 365.419 540.875 388.916 520.132 425.616L501.249 459.027L461.633 547.579C447.576 579 411.761 594.378 379.298 582.932L293.774 552.777C265.012 542.635 239.203 573.827 254.548 600.182V600.182C270.721 627.959 241.409 659.998 212.307 646.353L98.6527 593.065C73.4564 581.251 47.0814 606.988 58.2744 632.466V632.466C60.307 637.092 63.4706 641.133 67.4741 644.217L223.571 764.454C257.047 790.24 305.559 780.75 326.852 744.251V744.251C344.63 713.776 382.296 701.273 414.77 715.067L467.577 737.499C512.812 756.715 564.359 729.987 574.721 681.945L576.099 675.559C588.658 617.33 660.938 596.445 702.618 639.001V639.001C748.29 685.633 827.6 655.464 830.733 590.268L836.1 478.579Z" fill="url(#paint0_linear_11_443)"/>
<path d="M755.118 377.003C696.282 355.255 732.101 394.913 661.742 394.913C536.375 389.796 544.05 439.687 523.572 494.695C503.094 549.703 496.857 590.267 437.872 612.387C417.404 620.062 402.053 625.655 349.603 598.315C229.353 535.631 299.574 614.556 272.847 663.557C237.028 718.565 155.156 643.089 88.6343 599.594" stroke="#3A7146" stroke-opacity="0.5" stroke-width="10.2341"/>
<path d="M778.145 420.618C719.309 398.87 837.001 462.713 766.641 462.713C641.274 457.596 576.627 462.713 555.564 538.19C534.501 613.666 483.925 641.929 483.925 641.929C483.925 641.929 422.689 680.929 372.63 641.929C280.523 570.171 321.322 650.375 294.595 699.376C253.659 746.709 178.183 686.703 111.661 643.209" stroke="#3A7146" stroke-opacity="0.5" stroke-width="10.2341"/>
<path d="M821.64 484.581C762.804 462.833 932.945 699.376 779.434 653.323C683.49 547.144 614.41 534.352 584.987 581.684C555.564 629.017 541.492 694.259 518.465 705.773C495.163 717.424 450.535 703.921 396.936 678.908C320.18 643.089 345.765 675.071 309.946 730.078C274.127 785.086 210.164 736.475 143.643 692.98" stroke="#3A7146" stroke-opacity="0.5" stroke-width="10.2341"/>
<defs>
<linearGradient id="paint0_linear_11_443" x1="739.777" y1="513.764" x2="0.365639" y2="738.913" gradientUnits="userSpaceOnUse">
<stop stop-color="#90E87A"/>
<stop offset="0.20021" stop-color="#A8B847"/>
<stop offset="0.36538" stop-color="#49A191" stop-opacity="0.94"/>
<stop offset="0.490868" stop-color="#C5F049"/>
<stop offset="0.578803" stop-color="#B1FFAF" stop-opacity="0.8"/>
<stop offset="0.814423" stop-color="#1A4267" stop-opacity="0.11"/>
</linearGradient>
</defs>
</svg>
