<svg width="1188" height="1157" viewBox="0 0 1188 1157" fill="none" xmlns="http://www.w3.org/2000/svg">
<path d="M970.057 581.579C974.189 495.59 890.754 432.219 809.027 459.273V459.273C798.485 462.763 787.517 464.804 776.426 465.342L755.056 466.378C712.949 468.419 674.831 491.916 654.089 528.616L635.205 562.027L595.589 650.579C581.532 682 545.717 697.378 513.254 685.932L428.037 655.885C399.17 645.706 373.267 677.011 388.668 703.463V703.463C404.867 731.285 375.589 763.41 346.387 749.855L225.342 693.667C194.278 679.247 168.427 721.323 195.329 742.517V742.517L357.527 867.454C391.003 893.24 439.516 883.75 460.808 847.251V847.251C478.587 816.776 516.252 804.273 548.726 818.067L601.533 840.499C646.769 859.714 698.316 832.987 708.678 784.945L710.055 778.558C722.614 720.33 794.894 699.445 836.575 742.001V742.001C882.247 788.633 961.556 758.464 964.689 693.268L970.057 581.579Z" fill="url(#paint0_linear_11_429)"/>
<path d="M889.075 480.003C830.239 458.255 866.058 497.913 795.699 497.913C670.331 492.796 678.007 542.687 657.529 597.695C637.051 652.703 630.814 693.267 571.828 715.387C551.36 723.062 536.009 728.655 483.56 701.315C363.309 638.631 433.531 717.556 406.804 766.557C370.985 821.565 289.112 746.089 222.591 702.594" stroke="#362260" stroke-opacity="0.43" stroke-width="10.2341"/>
<path d="M912.101 523.618C853.265 501.87 970.957 565.713 900.598 565.713C775.231 560.596 710.583 565.713 689.52 641.19C668.457 716.666 617.882 744.929 617.882 744.929C617.882 744.929 556.646 783.929 506.586 744.929C414.48 673.171 455.278 753.375 428.552 802.376C387.615 849.709 312.139 789.703 245.618 746.209" stroke="#362260" stroke-opacity="0.43" stroke-width="10.2341"/>
<path d="M955.596 587.581C896.76 565.833 1066.9 802.376 913.391 756.323C817.446 650.144 748.366 637.352 718.943 684.684C689.52 732.017 675.448 797.259 652.422 808.773C629.12 820.424 584.491 806.921 530.892 781.908C454.137 746.089 479.722 778.071 443.903 833.078C408.084 888.086 344.121 839.475 277.599 795.98" stroke="#362260" stroke-opacity="0.43" stroke-width="10.2341"/>
<defs>
<linearGradient id="paint0_linear_11_429" x1="873.734" y1="616.764" x2="134.322" y2="841.913" gradientUnits="userSpaceOnUse">
<stop stop-color="#C4EAFF"/>
<stop offset="0.2" stop-color="#8E5CF8" stop-opacity="0.72"/>
<stop offset="0.4" stop-color="#5179C7" stop-opacity="0.72"/>
<stop offset="0.6" stop-color="#CCB6FC" stop-opacity="0.91"/>
<stop offset="0.8" stop-color="#AA69FB"/>
<stop offset="1" stop-color="#1A4267" stop-opacity="0.11"/>
</linearGradient>
</defs>
</svg>
