<svg width="1030" height="1034" viewBox="0 0 1030 1034" fill="none" xmlns="http://www.w3.org/2000/svg">
<path d="M811.189 458.58C815.322 372.59 731.886 309.219 650.159 336.273V336.273C639.617 339.763 628.65 341.805 617.559 342.343L596.189 343.379C554.081 345.42 515.964 368.916 495.221 405.617L476.338 439.027L436.722 527.58C422.665 559.001 386.85 574.379 354.387 562.932L266.026 531.777C238.234 521.977 213.296 552.117 228.123 577.583V577.583C244.036 604.913 214.472 636.123 186.321 621.712L87.4519 571.102C64.143 559.17 36.461 576.098 36.4611 602.284V602.284C36.4612 613.151 41.5051 623.403 50.1145 630.034L198.66 744.455C232.136 770.24 280.648 760.751 301.941 724.252V724.252C319.719 693.776 357.385 681.273 389.859 695.068L442.666 717.5C487.901 736.715 539.448 709.988 549.81 661.945L551.188 655.559C563.747 597.33 636.027 576.445 677.707 619.002V619.002C723.379 665.633 802.688 635.465 805.822 570.268L811.189 458.58Z" fill="url(#paint0_linear_11_450)"/>
<path d="M730.206 357.003C671.37 335.255 707.189 374.913 636.83 374.913C511.463 369.796 519.138 419.687 498.66 474.695C478.182 529.703 471.945 570.267 412.96 592.387C392.492 600.062 377.141 605.655 324.691 578.315C204.441 515.631 274.662 594.556 247.936 643.557C212.116 698.565 130.244 623.089 63.7224 579.594" stroke="#6F1D49" stroke-opacity="0.35" stroke-width="10.2341"/>
<path d="M753.233 400.618C694.397 378.87 812.089 442.714 741.729 442.713C616.362 437.596 551.715 442.713 530.652 518.19C509.588 593.666 459.013 621.929 459.013 621.929C459.013 621.929 397.777 660.93 347.718 621.929C255.611 550.171 296.41 630.375 269.683 679.376C228.747 726.709 153.27 666.704 86.749 623.209" stroke="#6F1D49" stroke-opacity="0.35" stroke-width="10.2341"/>
<path d="M796.728 464.581C737.892 442.833 908.033 679.376 754.522 633.323C658.578 527.144 589.498 514.352 560.075 561.684C530.652 609.017 516.58 674.259 493.553 685.773C470.251 697.424 425.622 683.921 372.024 658.908C295.268 623.089 320.853 655.071 285.034 710.078C249.215 765.086 185.252 716.475 118.73 672.98" stroke="#6F1D49" stroke-opacity="0.35" stroke-width="10.2341"/>
<defs>
<linearGradient id="paint0_linear_11_450" x1="714.865" y1="493.764" x2="-24.5464" y2="718.913" gradientUnits="userSpaceOnUse">
<stop stop-color="#FFAFAF"/>
<stop offset="0.20021" stop-color="#FF4AAB" stop-opacity="0.83"/>
<stop offset="0.36538" stop-color="#A52AB0" stop-opacity="0.78"/>
<stop offset="0.490868" stop-color="#FFADC1" stop-opacity="0.96"/>
<stop offset="0.578803" stop-color="#E65DA7"/>
<stop offset="0.814423" stop-color="#F478FF"/>
</linearGradient>
</defs>
</svg>
