<svg width="1189" height="1157" viewBox="0 0 1189 1157" fill="none" xmlns="http://www.w3.org/2000/svg">
<path d="M970.101 581.579C974.233 495.59 890.797 432.219 809.07 459.273V459.273C798.528 462.763 787.561 464.804 776.47 465.342L755.1 466.378C712.993 468.419 674.875 491.916 654.133 528.616L635.249 562.027L595.633 650.579C581.576 682 545.761 697.378 513.298 685.932L428.081 655.885C399.214 645.706 373.311 677.011 388.712 703.463V703.463C404.911 731.285 375.633 763.41 346.431 749.855L225.386 693.667C194.322 679.247 168.471 721.323 195.373 742.517V742.517L357.571 867.454C391.047 893.24 439.56 883.75 460.852 847.251V847.251C478.631 816.776 516.296 804.273 548.77 818.067L601.577 840.499C646.812 859.714 698.36 832.987 708.722 784.945L710.099 778.558C722.658 720.33 794.938 699.445 836.619 742.001V742.001C882.291 788.633 961.6 758.464 964.733 693.268L970.101 581.579Z" fill="url(#paint0_linear_11_443)"/>
<path d="M889.119 480.003C830.283 458.255 866.102 497.913 795.743 497.913C670.375 492.796 678.051 542.687 657.573 597.695C637.095 652.703 630.858 693.267 571.873 715.387C551.404 723.062 536.053 728.655 483.604 701.315C363.353 638.631 433.575 717.556 406.848 766.557C371.029 821.565 289.156 746.089 222.635 702.594" stroke="#3A7146" stroke-opacity="0.5" stroke-width="10.2341"/>
<path d="M912.146 523.618C853.309 501.87 971.001 565.713 900.642 565.713C775.275 560.596 710.627 565.713 689.564 641.19C668.501 716.666 617.926 744.929 617.926 744.929C617.926 744.929 556.69 783.929 506.63 744.929C414.524 673.171 455.322 753.375 428.596 802.376C387.659 849.709 312.183 789.703 245.662 746.209" stroke="#3A7146" stroke-opacity="0.5" stroke-width="10.2341"/>
<path d="M955.64 587.581C896.804 565.833 1066.95 802.376 913.434 756.323C817.49 650.144 748.41 637.352 718.987 684.684C689.564 732.017 675.492 797.259 652.466 808.773C629.164 820.424 584.535 806.921 530.936 781.908C454.181 746.089 479.766 778.071 443.947 833.078C408.128 888.086 344.165 839.475 277.643 795.98" stroke="#3A7146" stroke-opacity="0.5" stroke-width="10.2341"/>
<defs>
<linearGradient id="paint0_linear_11_443" x1="873.777" y1="616.764" x2="134.366" y2="841.913" gradientUnits="userSpaceOnUse">
<stop stop-color="#90E87A"/>
<stop offset="0.20021" stop-color="#A8B847"/>
<stop offset="0.36538" stop-color="#49A191" stop-opacity="0.94"/>
<stop offset="0.490868" stop-color="#C5F049"/>
<stop offset="0.578803" stop-color="#B1FFAF" stop-opacity="0.8"/>
<stop offset="0.814423" stop-color="#1A4267" stop-opacity="0.11"/>
</linearGradient>
</defs>
</svg>
