<svg width="224" height="453" viewBox="0 0 224 453" fill="none" xmlns="http://www.w3.org/2000/svg">
<path d="M263.148 227.311C264.763 193.702 232.152 168.933 200.209 179.507C196.089 180.871 191.802 181.669 187.467 181.88L179.115 182.285C162.657 183.082 147.759 192.266 139.652 206.61L132.271 219.669L116.787 254.28C111.293 266.561 97.2944 272.571 84.6061 268.097L51.2988 256.353C40.0162 252.375 29.8918 264.611 35.9114 274.949C42.2429 285.824 30.7994 298.38 19.3859 293.082L-27.9248 271.121C-40.066 265.485 -50.1699 281.93 -39.6555 290.214L23.7401 339.046C36.8242 349.124 55.7854 345.415 64.1075 331.149C71.0563 319.238 85.7779 314.351 98.4704 319.743L119.11 328.51C136.79 336.021 156.938 325.574 160.988 306.797L161.526 304.301C166.435 281.542 194.686 273.379 210.976 290.012C228.827 308.238 259.826 296.447 261.05 270.965L263.148 227.311Z" fill="url(#paint0_linear_0_115)"/>
<path d="M231.496 187.61C208.5 179.11 222.5 194.61 195 194.61C146 192.61 149 212.11 140.996 233.61C132.992 255.11 130.554 270.964 107.5 279.61C99.5 282.61 93.5 284.796 73 274.11C26 249.61 53.4461 280.458 43 299.61C29 321.11 -3 291.61 -29 274.61" stroke="#355573" stroke-opacity="0.5" stroke-width="4"/>
<path d="M240.496 204.657C217.5 196.157 263.5 221.11 236 221.11C187 219.11 161.733 221.11 153.5 250.61C145.267 280.11 125.5 291.157 125.5 291.157C125.5 291.157 101.566 306.4 82.0001 291.157C46.0001 263.11 61.9462 294.458 51.5001 313.61C35.5001 332.11 6.00006 308.657 -19.9999 291.657" stroke="#355573" stroke-opacity="0.5" stroke-width="4"/>
<path d="M257.496 229.657C234.5 221.157 301 313.61 241 295.61C203.5 254.11 176.5 249.11 165 267.61C153.5 286.11 148 311.61 139 316.11C129.892 320.664 112.449 315.386 91.5 305.61C61.5 291.61 71.5 304.11 57.5 325.61C43.5 347.11 18.5 328.11 -7.5 311.11" stroke="#355573" stroke-opacity="0.5" stroke-width="4"/>
<defs>
<linearGradient id="paint0_linear_0_115" x1="225.5" y1="241.063" x2="-63.5001" y2="329.063" gradientUnits="userSpaceOnUse">
<stop stop-color="#9CCFFF"/>
<stop offset="0.20021" stop-color="#94CCFF" stop-opacity="0.66288"/>
<stop offset="0.36538" stop-color="#365A7C"/>
<stop offset="0.490868" stop-color="#98CEFF" stop-opacity="0.578607"/>
<stop offset="0.578803" stop-color="#AFD9FF" stop-opacity="0.8"/>
<stop offset="0.814423" stop-color="#1A4267" stop-opacity="0.11"/>
</linearGradient>
</defs>
</svg>
