<svg width="1037" height="1039" viewBox="0 0 1037 1039" fill="none" xmlns="http://www.w3.org/2000/svg">
<path d="M818.145 463.579C822.277 377.59 738.842 314.219 657.115 341.273V341.273C646.573 344.763 635.606 346.804 624.514 347.342L603.144 348.378C561.037 350.419 522.919 373.916 502.177 410.616L483.293 444.027L443.677 532.579C429.62 564 393.805 579.378 361.342 567.932L277.927 538.52C248.444 528.124 221.987 560.098 237.718 587.114V587.114C254.064 615.19 225.012 647.812 195.238 634.815L77.8872 583.587C56.8379 574.398 34.6043 593.885 40.9543 615.958V615.958C42.554 621.518 45.8891 626.422 50.4729 629.952L205.615 749.454C239.091 775.24 287.604 765.75 308.896 729.251V729.251C326.675 698.776 364.34 686.273 396.814 700.067L449.621 722.499C494.857 741.715 546.404 714.987 556.766 666.945L558.143 660.559C570.702 602.33 642.982 581.445 684.663 624.001V624.001C730.335 670.633 809.644 640.464 812.777 575.268L818.145 463.579Z" fill="url(#paint0_linear_11_436)"/>
<path d="M737.163 362.003C678.326 340.255 714.146 379.913 643.786 379.913C518.419 374.796 526.095 424.687 505.617 479.695C485.139 534.703 478.901 575.267 419.916 597.387C399.448 605.062 384.097 610.655 331.647 583.315C211.397 520.631 281.618 599.556 254.892 648.557C219.073 703.565 137.2 628.089 70.6787 584.594" stroke="#355573" stroke-opacity="0.5" stroke-width="10.2341"/>
<path d="M760.189 405.618C701.353 383.87 819.045 447.714 748.686 447.713C623.319 442.596 558.671 447.713 537.608 523.19C516.545 598.666 465.97 626.929 465.97 626.929C465.97 626.929 404.734 665.93 354.674 626.929C262.568 555.171 303.366 635.375 276.64 684.376C235.703 731.709 160.227 671.704 93.7056 628.209" stroke="#355573" stroke-opacity="0.5" stroke-width="10.2341"/>
<path d="M803.684 469.581C744.848 447.833 914.989 684.376 761.478 638.323C665.534 532.144 596.454 519.352 567.031 566.684C537.608 614.017 523.536 679.259 500.51 690.773C477.207 702.424 432.579 688.921 378.98 663.908C302.225 628.089 327.81 660.071 291.991 715.078C256.171 770.086 192.208 721.475 125.687 677.98" stroke="#355573" stroke-opacity="0.5" stroke-width="10.2341"/>
<defs>
<linearGradient id="paint0_linear_11_436" x1="721.822" y1="498.764" x2="-17.5896" y2="723.913" gradientUnits="userSpaceOnUse">
<stop stop-color="#9CF9FF"/>
<stop offset="0.20021" stop-color="#94CCFF" stop-opacity="0.66288"/>
<stop offset="0.36538" stop-color="#555CA3"/>
<stop offset="0.490868" stop-color="#98CEFF" stop-opacity="0.578607"/>
<stop offset="0.578803" stop-color="#AFFFFA" stop-opacity="0.8"/>
<stop offset="0.814423" stop-color="#4C3493" stop-opacity="0.81"/>
</linearGradient>
</defs>
</svg>
