<svg width="574" height="420" viewBox="0 0 574 420" fill="none" xmlns="http://www.w3.org/2000/svg">
<path d="M663.123 108.401C667.255 22.4115 583.819 -40.9599 502.092 -13.9055V-13.9055C491.55 -10.4158 480.583 -8.37404 469.492 -7.83633L448.122 -6.80034C406.015 -4.75901 367.897 18.7372 347.155 55.4377L328.271 88.8484L288.655 177.401C274.598 208.822 238.783 224.2 206.32 212.753L121.103 182.706C92.2361 172.528 66.3325 203.833 81.7339 230.284V230.284C97.9331 258.106 68.6547 290.232 39.4531 276.677L-81.5923 220.488C-112.656 206.069 -138.507 248.145 -111.605 269.339V269.339L50.5932 394.276C84.0692 420.061 132.582 410.572 153.874 374.073V374.073C171.653 343.597 209.318 331.094 241.792 344.889L294.599 367.321C339.834 386.536 391.382 359.809 401.744 311.766L403.121 305.38C415.68 247.151 487.96 226.266 529.641 268.823V268.823C575.312 315.454 654.622 285.286 657.755 220.089L663.123 108.401Z" fill="url(#paint0_linear_11_436)"/>
<path d="M582.141 6.8247C523.305 -14.923 559.124 24.7345 488.765 24.7342C363.397 19.6172 371.073 69.5082 350.595 124.516C330.117 179.525 323.88 220.089 264.895 242.208C244.426 249.884 229.075 255.477 176.626 228.136C56.3754 165.453 126.597 244.377 99.8701 293.379C64.051 348.386 -17.8216 272.91 -84.343 229.416" stroke="#355573" stroke-opacity="0.5" stroke-width="10.2341"/>
<path d="M605.168 50.4391C546.331 28.6914 664.023 92.5349 593.664 92.5346C468.297 87.4176 403.649 92.5346 382.586 168.011C361.523 243.488 310.948 271.751 310.948 271.751C310.948 271.751 249.712 310.751 199.652 271.751C107.546 199.993 148.344 280.196 121.618 329.198C80.6813 376.53 5.20503 316.525 -61.3164 273.03" stroke="#355573" stroke-opacity="0.5" stroke-width="10.2341"/>
<path d="M648.662 114.402C589.826 92.6544 759.967 329.197 606.456 283.144C510.512 176.966 441.432 164.173 412.009 211.506C382.586 258.838 368.514 324.081 345.488 335.594C322.186 347.245 277.557 333.742 223.958 308.729C147.203 272.91 172.788 304.892 136.969 359.9C101.15 414.908 37.1865 366.296 -29.335 322.801" stroke="#355573" stroke-opacity="0.5" stroke-width="10.2341"/>
<defs>
<linearGradient id="paint0_linear_11_436" x1="566.799" y1="143.585" x2="-172.612" y2="368.735" gradientUnits="userSpaceOnUse">
<stop stop-color="#9CF9FF"/>
<stop offset="0.20021" stop-color="#94CCFF" stop-opacity="0.66288"/>
<stop offset="0.36538" stop-color="#555CA3"/>
<stop offset="0.490868" stop-color="#98CEFF" stop-opacity="0.578607"/>
<stop offset="0.578803" stop-color="#AFFFFA" stop-opacity="0.8"/>
<stop offset="0.814423" stop-color="#4C3493" stop-opacity="0.81"/>
</linearGradient>
</defs>
</svg>
