<svg width="543" height="336" viewBox="0 0 543 336" fill="none" xmlns="http://www.w3.org/2000/svg">
<path d="M271.983 164.856C244.067 152.871 211.72 165.785 199.735 193.702C187.75 221.618 200.664 253.964 228.58 265.949L271.983 164.856ZM228.58 265.949C311.238 301.437 408.193 289.889 459.343 205.892C506.12 129.077 499.657 12.5577 439.28 -128.741L338.112 -85.5116C393.938 45.1355 383.995 118.099 365.378 148.672C351.134 172.063 320.78 185.806 271.983 164.856L228.58 265.949Z" fill="url(#paint0_linear_11_351)"/>
<rect width="94.2051" height="72.7142" rx="36.3571" transform="matrix(-0.507702 0.861533 0.861533 0.507702 225.894 146.266)" fill="#4A4A4A" fill-opacity="0.3"/>
<rect x="164.034" y="217.152" width="90.263" height="76.3335" rx="38.1668" transform="rotate(-59.1064 164.034 217.152)" fill="#FFE5DC"/>
<rect x="152.901" y="128.457" width="17.7844" height="84.1627" rx="8.89218" transform="rotate(-56.411 152.901 128.457)" fill="#FFE5DC"/>
<rect x="127.975" y="139.152" width="17.7844" height="92.3199" rx="8.89218" transform="rotate(-56.411 127.975 139.152)" fill="#FFE5DC"/>
<rect x="121.705" y="165.24" width="17.7844" height="84.1627" rx="8.89218" transform="rotate(-58.4955 121.705 165.24)" fill="#FFE5DC"/>
<rect x="125.207" y="194.82" width="16.3618" height="84.1627" rx="8.18091" transform="rotate(-60.3201 125.207 194.82)" fill="#FFE5DC"/>
<rect x="123.25" y="133.051" width="12.0524" height="23.8174" rx="5.11703" transform="rotate(-56.4083 123.25 133.051)" fill="#75D75D"/>
<rect x="145.45" y="119.77" width="12.0524" height="23.8174" rx="5.11703" transform="rotate(-56.4083 145.45 119.77)" fill="#75D75D"/>
<rect x="118.624" y="158.906" width="12.0524" height="23.8174" rx="5.11703" transform="rotate(-56.4083 118.624 158.906)" fill="#75D75D"/>
<rect x="120.42" y="189.841" width="10.1124" height="20.5054" rx="5.0562" transform="rotate(-60.3217 120.42 189.841)" fill="#75D75D"/>
<rect x="201.792" y="117.898" width="23.9289" height="77.2513" rx="11.9645" transform="rotate(-25.5416 201.792 117.898)" fill="#FFE5DC"/>
<rect x="205.29" y="106.811" width="13.0076" height="23.8174" rx="5.11703" transform="rotate(-26.7283 205.29 106.811)" fill="#75D75D"/>
<path d="M212.772 139.099C212.772 139.099 219.754 155.956 226.212 161.772" stroke="#E0B0A0" stroke-opacity="0.46" stroke-width="2.55852" stroke-linecap="round"/>
<path d="M187.931 135.885C187.931 135.885 183.086 136.446 182.708 141.821" stroke="#E0B0A0" stroke-opacity="0.46" stroke-width="2.55852" stroke-linecap="round"/>
<path d="M185.877 144.242C185.877 144.242 190.744 143.925 191.392 138.576" stroke="#E0B0A0" stroke-opacity="0.46" stroke-width="2.55852" stroke-linecap="round"/>
<path d="M155.788 171.855C155.788 171.855 151.119 173.265 151.697 178.622" stroke="#E0B0A0" stroke-opacity="0.46" stroke-width="2.55852" stroke-linecap="round"/>
<path d="M162.878 156.72C162.878 156.72 167.661 155.765 167.599 150.377" stroke="#E0B0A0" stroke-opacity="0.46" stroke-width="2.55852" stroke-linecap="round"/>
<path d="M155.245 180.443C155.245 180.443 159.979 179.271 159.671 173.891" stroke="#E0B0A0" stroke-opacity="0.46" stroke-width="2.55852" stroke-linecap="round"/>
<path d="M163.812 148.165C163.812 148.165 159.084 149.36 159.417 154.737" stroke="#E0B0A0" stroke-opacity="0.46" stroke-width="2.55852" stroke-linecap="round"/>
<path d="M150.87 197.346C150.87 197.346 146.907 200.187 149.185 205.071" stroke="#E0B0A0" stroke-opacity="0.46" stroke-width="2.55852" stroke-linecap="round"/>
<path d="M153.131 205.65C153.131 205.65 157.233 203.011 155.203 198.019" stroke="#E0B0A0" stroke-opacity="0.46" stroke-width="2.55852" stroke-linecap="round"/>
<defs>
<linearGradient id="paint0_linear_11_351" x1="243.988" y1="213.502" x2="423.083" y2="-33.6103" gradientUnits="userSpaceOnUse">
<stop offset="0.232145" stop-color="#DEEEFD"/>
<stop offset="1" stop-color="#DEEEFD" stop-opacity="0"/>
</linearGradient>
</defs>
</svg>
