<svg width="543" height="336" viewBox="0 0 543 336" fill="none" xmlns="http://www.w3.org/2000/svg">
<path d="M271.974 164.856C244.058 152.871 211.711 165.785 199.726 193.701C187.741 221.617 200.655 253.964 228.571 265.949L271.974 164.856ZM228.571 265.949C311.229 301.437 408.184 289.889 459.334 205.892C506.111 129.077 499.648 12.5575 439.271 -128.741L338.103 -85.5117C393.929 45.1353 383.986 118.099 365.369 148.672C351.125 172.063 320.771 185.806 271.974 164.856L228.571 265.949Z" fill="url(#paint0_linear_11_377)"/>
<rect width="94.2051" height="72.7142" rx="36.3571" transform="matrix(-0.507702 0.861533 0.861533 0.507702 225.886 146.266)" fill="#4A4A4A" fill-opacity="0.3"/>
<rect x="164.025" y="217.151" width="90.263" height="76.3335" rx="38.1668" transform="rotate(-59.1064 164.025 217.151)" fill="#FFE5DC"/>
<rect x="152.891" y="128.457" width="17.7844" height="84.1627" rx="8.89218" transform="rotate(-56.411 152.891 128.457)" fill="#FFE5DC"/>
<rect x="127.965" y="139.152" width="17.7844" height="92.3199" rx="8.89218" transform="rotate(-56.411 127.965 139.152)" fill="#FFE5DC"/>
<rect x="121.696" y="165.24" width="17.7844" height="84.1627" rx="8.89218" transform="rotate(-58.4955 121.696 165.24)" fill="#FFE5DC"/>
<rect x="125.198" y="194.819" width="16.3618" height="84.1627" rx="8.18091" transform="rotate(-60.3201 125.198 194.819)" fill="#FFE5DC"/>
<rect x="123.241" y="133.051" width="12.0524" height="23.8174" rx="5.11703" transform="rotate(-56.4083 123.241 133.051)" fill="#7EC1FF"/>
<rect x="145.441" y="119.77" width="12.0524" height="23.8174" rx="5.11703" transform="rotate(-56.4083 145.441 119.77)" fill="#7EC1FF"/>
<rect x="118.614" y="158.905" width="12.0524" height="23.8174" rx="5.11703" transform="rotate(-56.4083 118.614 158.905)" fill="#7EC1FF"/>
<rect x="120.411" y="189.841" width="10.1124" height="20.5054" rx="5.0562" transform="rotate(-60.3217 120.411 189.841)" fill="#7EC1FF"/>
<rect x="201.782" y="117.898" width="23.9289" height="77.2513" rx="11.9645" transform="rotate(-25.5416 201.782 117.898)" fill="#FFE5DC"/>
<rect x="205.28" y="106.811" width="13.0076" height="23.8174" rx="5.11703" transform="rotate(-26.7283 205.28 106.811)" fill="#7EC1FF"/>
<path d="M212.763 139.099C212.763 139.099 219.745 155.956 226.202 161.772" stroke="#E0B0A0" stroke-opacity="0.46" stroke-width="2.55852" stroke-linecap="round"/>
<path d="M187.921 135.885C187.921 135.885 183.077 136.446 182.699 141.821" stroke="#E0B0A0" stroke-opacity="0.46" stroke-width="2.55852" stroke-linecap="round"/>
<path d="M185.868 144.242C185.868 144.242 190.735 143.925 191.383 138.576" stroke="#E0B0A0" stroke-opacity="0.46" stroke-width="2.55852" stroke-linecap="round"/>
<path d="M155.778 171.855C155.778 171.855 151.109 173.265 151.688 178.622" stroke="#E0B0A0" stroke-opacity="0.46" stroke-width="2.55852" stroke-linecap="round"/>
<path d="M162.869 156.72C162.869 156.72 167.652 155.765 167.589 150.377" stroke="#E0B0A0" stroke-opacity="0.46" stroke-width="2.55852" stroke-linecap="round"/>
<path d="M155.236 180.443C155.236 180.443 159.97 179.271 159.662 173.891" stroke="#E0B0A0" stroke-opacity="0.46" stroke-width="2.55852" stroke-linecap="round"/>
<path d="M163.803 148.165C163.803 148.165 159.075 149.359 159.408 154.737" stroke="#E0B0A0" stroke-opacity="0.46" stroke-width="2.55852" stroke-linecap="round"/>
<path d="M150.861 197.346C150.861 197.346 146.898 200.187 149.175 205.07" stroke="#E0B0A0" stroke-opacity="0.46" stroke-width="2.55852" stroke-linecap="round"/>
<path d="M153.122 205.65C153.122 205.65 157.224 203.011 155.194 198.019" stroke="#E0B0A0" stroke-opacity="0.46" stroke-width="2.55852" stroke-linecap="round"/>
<defs>
<linearGradient id="paint0_linear_11_377" x1="243.979" y1="213.502" x2="423.074" y2="-33.6104" gradientUnits="userSpaceOnUse">
<stop offset="0.232145" stop-color="#DEEEFD"/>
<stop offset="1" stop-color="#DEEEFD" stop-opacity="0"/>
</linearGradient>
</defs>
</svg>
