<svg width="139" height="110" viewBox="0 0 139 110" fill="none" xmlns="http://www.w3.org/2000/svg">
<path d="M39.129 80.3722L10.6394 60.9148L14.92 54.6471L25.0623 61.5739C25.0624 59.2901 25.7721 57.4352 26.8358 55.8778C29.7155 51.6614 34.9652 50.0105 40.2452 53.6166L51.945 61.6071L47.6643 67.8748L37.0662 60.6366C34.939 59.1838 32.947 59.3274 31.5979 61.3026C30.2748 63.2399 30.6463 65.3876 32.8115 66.8664L43.4097 74.1045L39.129 80.3722Z" fill="#DEEEFD"/>
<path d="M62.2008 55.0868C55.5877 59.5136 48.8098 57.7403 44.9971 52.0446C40.9797 46.0431 42.3057 38.845 48.4601 34.7253C54.194 30.887 60.7792 31.959 64.6175 37.6929C65.1293 38.4575 65.7181 39.5025 66.1029 40.5735L52.5326 49.6574C54.411 51.2231 56.5416 51.1808 58.7204 49.7222C60.9375 48.2381 61.4832 46.6551 61.2507 45.15L67.7541 43.4537C68.7198 48.1213 66.4821 52.2209 62.2008 55.0868ZM51.8122 39.7329C49.7097 41.1403 48.948 43.1447 49.6797 45.4781L57.4396 40.2836C56.0075 38.6405 53.8764 38.3511 51.8122 39.7329Z" fill="#DEEEFD"/>
<path d="M72.8871 48.5457L62.3811 15.6843L69.6106 13.373L80.1166 46.2344L72.8871 48.5457Z" fill="#DEEEFD"/>
<path d="M84.2156 45.2151L80.2353 10.9455L87.7746 10.0698L91.7549 44.3395L84.2156 45.2151Z" fill="#DEEEFD"/>
<path d="M109.515 21.5253C116.756 22.845 121.119 28.9238 119.849 35.893C118.578 42.8622 112.352 47.0109 105.111 45.6912C97.9153 44.3798 93.5526 38.301 94.8228 31.3319C96.093 24.3627 102.32 20.2139 109.515 21.5253ZM108.262 28.404C105.275 27.8597 103.139 29.5744 102.561 32.7423C101.976 35.9553 103.378 38.2682 106.365 38.8126C109.351 39.3569 111.524 37.6956 112.11 34.4826C112.687 31.3148 111.248 28.9484 108.262 28.404Z" fill="#DEEEFD"/>
</svg>
