<svg width="18" height="127" viewBox="0 0 18 127" fill="none" xmlns="http://www.w3.org/2000/svg">
<path d="M3.1748 5.55626C3.1748 2.48763 5.66242 0 8.73105 0V0C11.7997 0 14.2873 2.48762 14.2873 5.55625V104.775H3.1748V5.55626Z" fill="#FFE459"/>
<path d="M2.39492 105.663C2.45171 105.158 2.87956 104.775 3.38868 104.775H14.0738C14.5829 104.775 15.0108 105.158 15.0676 105.663L17.3377 125.888C17.4043 126.481 16.9404 127 16.344 127H1.11852C0.522064 127 0.0582335 126.481 0.124765 125.888L2.39492 105.663Z" fill="#FF78C0"/>
<path d="M5.2627 115.887C5.2627 115.611 5.03884 115.387 4.7627 115.387C4.48655 115.387 4.2627 115.611 4.2627 115.887H5.2627ZM5.2627 127L5.2627 115.887H4.2627L4.2627 127H5.2627Z" fill="black" fill-opacity="0.3"/>
<path d="M8.4375 120.65C8.4375 120.374 8.21364 120.15 7.9375 120.15C7.66136 120.15 7.4375 120.374 7.4375 120.65H8.4375ZM8.4375 127L8.4375 120.65H7.4375L7.4375 127H8.4375Z" fill="black" fill-opacity="0.3"/>
<path d="M5.2627 115.887C5.2627 115.611 5.03884 115.387 4.7627 115.387C4.48655 115.387 4.2627 115.611 4.2627 115.887H5.2627ZM5.2627 127L5.2627 115.887H4.2627L4.2627 127H5.2627Z" fill="black" fill-opacity="0.3"/>
<path d="M8.4375 120.65C8.4375 120.374 8.21364 120.15 7.9375 120.15C7.66136 120.15 7.4375 120.374 7.4375 120.65H8.4375ZM8.4375 127L8.4375 120.65H7.4375L7.4375 127H8.4375Z" fill="black" fill-opacity="0.3"/>
</svg>
