<svg width="31" height="128" viewBox="0 0 31 128" fill="none" xmlns="http://www.w3.org/2000/svg">
<path d="M0 3.83981C0 3.38094 0.316323 2.97956 0.762058 2.87055C12.3231 0.0431613 18.4648 0.0430856 30.0259 2.87054C30.4716 2.97956 30.7879 3.38093 30.7879 3.8398V59.0166C30.7879 59.5689 30.3402 60.0166 29.7879 60.0166H1C0.447716 60.0166 0 59.5689 0 59.0166V3.83981Z" fill="#FFE459"/>
<rect x="9.23633" y="56.9379" width="12.3152" height="49.2607" fill="#FFE459"/>
<path d="M8.68911 107.077C8.75052 106.575 9.17642 106.199 9.6817 106.199H21.1065C21.6118 106.199 22.0377 106.575 22.0991 107.077L24.4931 126.629C24.5661 127.225 24.101 127.75 23.5005 127.75H7.28763C6.68714 127.75 6.22206 127.225 6.29505 126.629L8.68911 107.077Z" fill="#FF78C0"/>
</svg>
