<svg width="27" height="106" viewBox="0 0 27 106" fill="none" xmlns="http://www.w3.org/2000/svg">
<path d="M0.53418 4.27225C0.53418 3.09822 1.33346 2.07068 2.47725 1.80594C10.8309 -0.127615 15.8226 -0.127663 24.1763 1.80593C25.3201 2.07068 26.1193 3.09821 26.1193 4.27223V47.0486C26.1193 48.4617 24.9739 49.6072 23.5608 49.6072H3.0927C1.67967 49.6072 0.53418 48.4617 0.53418 47.0486V4.27225Z" fill="#FFE459"/>
<rect x="8.20996" y="47.0487" width="10.2341" height="40.9363" fill="#FFE459"/>
<path d="M7.56917 90.2325C7.7263 88.9493 8.81595 87.9849 10.1087 87.9849H16.5451C17.8379 87.9849 18.9275 88.9493 19.0847 90.2325L20.6511 103.025C20.8378 104.55 19.6479 105.895 18.1116 105.895H8.54228C7.00592 105.895 5.816 104.55 6.00273 103.025L7.56917 90.2325Z" fill="#FF78C0"/>
</svg>
