<svg width="27" height="106" viewBox="0 0 27 106" fill="none" xmlns="http://www.w3.org/2000/svg">
<path d="M0.716309 4.27225C0.716309 3.09822 1.51559 2.07068 2.65938 1.80594C11.013 -0.127615 16.0048 -0.127663 24.3584 1.80593C25.5022 2.07068 26.3015 3.09821 26.3015 4.27223V47.0486C26.3015 48.4617 25.156 49.6072 23.743 49.6072H3.27483C1.8618 49.6072 0.716309 48.4617 0.716309 47.0486V4.27225Z" fill="#FFE459"/>
<rect x="8.39209" y="47.0487" width="10.2341" height="40.9363" fill="#FFE459"/>
<path d="M7.7513 90.2325C7.90843 88.9493 8.99808 87.9849 10.2908 87.9849H16.7272C18.02 87.9849 19.1097 88.9493 19.2668 90.2325L20.8332 103.025C21.02 104.55 19.83 105.895 18.2937 105.895H8.72441C7.18805 105.895 5.99813 104.55 6.18486 103.025L7.7513 90.2325Z" fill="#B390FF"/>
</svg>
