<svg width="13" height="127" viewBox="0 0 13 127" fill="none" xmlns="http://www.w3.org/2000/svg">
<path d="M1 5.10795C1 2.28691 3.28691 0 6.10795 0V0C8.929 0 11.2159 2.28691 11.2159 5.10795V97.0542C11.2159 99.8753 8.929 102.162 6.10795 102.162V102.162C3.28691 102.162 1 99.8753 1 97.0542V5.10795Z" fill="#FFE459"/>
<path d="M1 100.191C1 99.3988 1.64198 98.7568 2.4339 98.7568H9.78232C10.5742 98.7568 11.2162 99.3988 11.2162 100.191V100.191C11.2162 101.28 10.3335 102.162 9.2446 102.162H2.97161C1.88272 102.162 1 101.28 1 100.191V100.191Z" fill="#FF67B8"/>
<path d="M6.10791 100.459L6.10791 126" stroke="#FF67B8" stroke-width="1.99997" stroke-linecap="round"/>
<path d="M4.40576 124.297H7.81117" stroke="#FF67B8" stroke-width="1.99997" stroke-linecap="round"/>
<path d="M4.40576 120.892H7.81117" stroke="#FF67B8" stroke-width="1.99997" stroke-linecap="round"/>
<path d="M2.70215 117.486H9.51296" stroke="#FF67B8" stroke-width="1.99997" stroke-linecap="round"/>
<path d="M2.70215 114.081H9.51296" stroke="#FF67B8" stroke-width="1.99997" stroke-linecap="round"/>
<path d="M1 110.676H11.2162" stroke="#FF67B8" stroke-width="1.99997" stroke-linecap="round"/>
<path d="M1 107.27H11.2162" stroke="#FF67B8" stroke-width="1.99997" stroke-linecap="round"/>
<path d="M1 103.865H11.2162" stroke="#FF67B8" stroke-width="1.99997" stroke-linecap="round"/>
</svg>
