<svg width="3270" height="2393" viewBox="0 0 3270 2393" fill="none" xmlns="http://www.w3.org/2000/svg">
<path d="M453.63 1280.14C1006.49 1617.64 2170.06 910.5 2603.99 528" stroke="url(#paint0_linear_4_4)" stroke-width="527.143" stroke-linecap="round"/>
<path d="M2603.99 2128.71C2288.27 1044.43 1170.42 368.872 578.987 458.872C-51.0134 554.742 35.7769 2578.71 3005.78 264.429" stroke="url(#paint1_linear_4_4)" stroke-width="527.143" stroke-linecap="round"/>
<path d="M1422.54 779.275C1432.97 769.33 1449.36 781.446 1442.91 794.335L1420.66 838.79C1418.23 843.639 1419.11 849.49 1422.85 853.415L1457.15 889.395C1467.1 899.827 1454.98 916.215 1442.09 909.765L1397.64 887.518C1392.79 885.092 1386.94 885.968 1383.01 889.71L1347.03 924.011C1336.6 933.956 1320.21 921.84 1326.66 908.951L1348.91 864.496C1351.34 859.647 1350.46 853.796 1346.72 849.871L1312.42 813.891C1302.47 803.459 1314.59 787.071 1327.48 793.521L1371.93 815.768C1376.78 818.194 1382.63 817.318 1386.56 813.576L1422.54 779.275Z" fill="#1D192D" fill-opacity="0.5"/>
<path d="M1455.61 571.842C1464.85 582.903 1451.68 598.46 1439.25 591.179L1425.23 582.972C1420.55 580.232 1414.65 580.723 1410.49 584.2L1398.03 594.612C1386.96 603.85 1371.41 590.685 1378.69 578.247L1386.9 564.23C1389.64 559.551 1389.14 553.655 1385.67 549.493L1375.26 537.026C1366.02 525.965 1379.18 510.407 1391.62 517.689L1405.64 525.895C1410.32 528.635 1416.21 528.144 1420.38 524.668L1432.84 514.256C1443.9 505.018 1459.46 518.183 1452.18 530.62L1443.97 544.637C1441.23 549.317 1441.72 555.213 1445.2 559.375L1455.61 571.842Z" fill="#1D192D" fill-opacity="0.7"/>
<path d="M1295.87 251.976C1295.71 237.564 1315.75 233.849 1320.77 247.358L1330.12 272.489C1332.01 277.572 1336.88 280.923 1342.31 280.865L1369.12 280.579C1383.53 280.426 1387.24 300.464 1373.73 305.487L1348.6 314.831C1343.52 316.721 1340.17 321.597 1340.23 327.019L1340.51 353.83C1340.67 368.242 1320.63 371.957 1315.61 358.448L1306.26 333.316C1304.37 328.233 1299.5 324.883 1294.07 324.941L1267.26 325.227C1252.85 325.38 1249.14 305.342 1262.64 300.319L1287.78 290.975C1292.86 289.085 1296.21 284.209 1296.15 278.787L1295.87 251.976Z" fill="#1D192D" fill-opacity="0.7"/>
<path d="M633.05 1237.91C634.814 1252.22 655.169 1253.23 658.351 1239.18L669.325 1190.69C670.522 1185.4 674.909 1181.44 680.291 1180.77L729.628 1174.69C743.931 1172.92 744.949 1152.57 730.892 1149.39L682.408 1138.41C677.119 1137.22 673.15 1132.83 672.486 1127.45L666.401 1078.11C664.637 1063.81 644.282 1062.79 641.101 1076.84L630.127 1125.33C628.93 1130.62 624.543 1134.59 619.161 1135.25L569.824 1141.34C555.52 1143.1 554.503 1163.45 568.559 1166.64L617.043 1177.61C622.332 1178.81 626.302 1183.19 626.966 1188.58L633.05 1237.91Z" fill="#1D192D" fill-opacity="0.7"/>
<path d="M856.171 1329.77C847.389 1341.2 861.175 1356.21 873.307 1348.43L915.151 1321.59C919.716 1318.66 925.627 1318.92 929.927 1322.22L969.342 1352.51C980.77 1361.29 995.78 1347.51 987.999 1335.38L961.163 1293.53C958.236 1288.97 958.487 1283.06 961.791 1278.76L992.082 1239.34C1000.86 1227.91 987.079 1212.9 974.947 1220.68L933.102 1247.52C928.538 1250.45 922.627 1250.2 918.327 1246.89L878.911 1216.6C867.484 1207.82 852.474 1221.6 860.254 1233.74L887.09 1275.58C890.018 1280.14 889.767 1286.06 886.462 1290.36L856.171 1329.77Z" fill="#1D192D" fill-opacity="0.5"/>
<path d="M707.206 1578.21C712.146 1591.74 732.207 1588.15 732.141 1573.74L731.914 1524.03C731.889 1518.61 735.269 1513.75 740.364 1511.89L787.063 1494.85C800.602 1489.91 797.008 1469.85 782.597 1469.92L732.886 1470.14C727.464 1470.17 722.608 1466.79 720.749 1461.69L703.709 1415C698.769 1401.46 678.708 1405.05 678.774 1419.46L679.002 1469.17C679.026 1474.59 675.646 1479.45 670.552 1481.31L623.853 1498.35C610.314 1503.29 613.907 1523.35 628.319 1523.28L678.029 1523.06C683.452 1523.03 688.307 1526.41 690.166 1531.51L707.206 1578.21Z" fill="#1D192D" fill-opacity="0.7"/>
<path d="M394.689 1387.73C382.001 1394.56 388.443 1413.9 402.696 1411.76L429.211 1407.78C434.574 1406.98 439.865 1409.62 442.438 1414.4L455.157 1438C461.993 1450.69 481.329 1444.25 479.19 1430L475.211 1403.48C474.407 1398.12 477.053 1392.83 481.827 1390.25L505.431 1377.53C518.119 1370.7 511.677 1351.36 497.424 1353.5L470.909 1357.48C465.546 1358.28 460.255 1355.64 457.682 1350.86L444.963 1327.26C438.127 1314.57 418.792 1321.01 420.93 1335.27L424.909 1361.78C425.713 1367.15 423.067 1372.44 418.293 1375.01L394.689 1387.73Z" fill="#1D192D" fill-opacity="0.7"/>
<defs>
<linearGradient id="paint0_linear_4_4" x1="1131.86" y1="1370.14" x2="2658.63" y2="524.785" gradientUnits="userSpaceOnUse">
<stop stop-color="#FFE5DC" stop-opacity="0"/>
<stop offset="0.273886" stop-color="#FFE5DC"/>
</linearGradient>
<linearGradient id="paint1_linear_4_4" x1="482.571" y1="1196.57" x2="1633.29" y2="611.572" gradientUnits="userSpaceOnUse">
<stop stop-color="#FFE5DC" stop-opacity="0.28"/>
<stop offset="0.227486" stop-color="#FFE5DC" stop-opacity="0.878487"/>
<stop offset="0.314" stop-color="#FFE5DC"/>
<stop offset="0.691979" stop-color="#FFE5DC" stop-opacity="0.914099"/>
<stop offset="1" stop-color="#FFE5DC" stop-opacity="0"/>
</linearGradient>
</defs>
</svg>
