<svg width="209" height="299" viewBox="0 0 209 299" fill="none" xmlns="http://www.w3.org/2000/svg">
<path d="M41 41C149.5 49.5 280.5 113 321.5 257" stroke="url(#paint0_linear_1_2)" stroke-width="82" stroke-linecap="round"/>
<path d="M124.217 70.0872C125.84 68.5403 128.389 70.425 127.386 72.4298L123.925 79.345C123.547 80.0994 123.684 81.0095 124.266 81.6201L129.602 87.217C131.149 88.8397 129.264 91.3889 127.259 90.3856L120.344 86.9251C119.589 86.5476 118.679 86.6839 118.069 87.266L112.472 92.6017C110.849 94.1486 108.3 92.2639 109.303 90.2591L112.764 83.3439C113.141 82.5895 113.005 81.6794 112.423 81.0688L107.087 75.4718C105.54 73.8492 107.425 71.3 109.43 72.3033L116.345 75.7638C117.099 76.1413 118.009 76.0049 118.62 75.4229L124.217 70.0872Z" fill="#1D192D" fill-opacity="0.5"/>
<path d="M185.833 107.136C186.728 105.081 189.809 105.828 189.662 108.065L189.157 115.781C189.102 116.623 189.581 117.409 190.355 117.746L197.444 120.833C199.5 121.728 198.752 124.809 196.515 124.662L188.799 124.157C187.957 124.102 187.171 124.581 186.835 125.355L183.748 132.444C182.853 134.5 179.772 133.752 179.918 131.515L180.423 123.799C180.478 122.957 179.999 122.171 179.226 121.835L172.136 118.748C170.081 117.853 170.828 114.772 173.065 114.918L180.781 115.423C181.623 115.478 182.409 114.999 182.746 114.226L185.833 107.136Z" fill="#1D192D" fill-opacity="0.7"/>
<path d="M185.488 65.3437C187.703 64.9975 188.723 67.9991 186.756 69.0745L179.971 72.784C179.231 73.1887 178.824 74.0143 178.954 74.8477L180.148 82.4877C180.495 84.7027 177.493 85.723 176.418 83.756L172.708 76.971C172.303 76.2309 171.478 75.8242 170.644 75.9545L163.004 77.1484C160.789 77.4946 159.769 74.493 161.736 73.4176L168.521 69.7081C169.261 69.3034 169.668 68.4778 169.538 67.6444L168.344 60.0044C167.998 57.7894 170.999 56.7691 172.075 58.7361L175.784 65.5211C176.189 66.2612 177.014 66.6679 177.848 66.5376L185.488 65.3437Z" fill="#1D192D" fill-opacity="0.7"/>
<path d="M140.512 19.0629C140.488 16.8212 143.606 16.2433 144.387 18.3446L145.84 22.254C146.134 23.0447 146.893 23.5659 147.736 23.5569L151.907 23.5124C154.149 23.4885 154.727 26.6056 152.625 27.3869L148.716 28.8404C147.925 29.1344 147.404 29.8929 147.413 30.7364L147.458 34.907C147.481 37.1488 144.364 37.7267 143.583 35.6253L142.129 31.7159C141.836 30.9253 141.077 30.4041 140.234 30.4131L136.063 30.4575C133.821 30.4814 133.243 27.3643 135.345 26.583L139.254 25.1295C140.045 24.8355 140.566 24.0771 140.557 23.2335L140.512 19.0629Z" fill="#1D192D" fill-opacity="0.5"/>
<defs>
<linearGradient id="paint0_linear_1_2" x1="14" y1="34.5" x2="219" y2="111.5" gradientUnits="userSpaceOnUse">
<stop offset="0.329027" stop-color="#FFE5DC"/>
<stop offset="0.924925" stop-color="#FFE5DC" stop-opacity="0"/>
</linearGradient>
</defs>
</svg>
