<svg width="34" height="127" viewBox="0 0 34 127" fill="none" xmlns="http://www.w3.org/2000/svg">
<path d="M3.90625 17.5627C3.90625 17.2294 4.07238 16.9179 4.34925 16.7322L27.7407 1.04424C28.405 0.598665 29.2977 1.0748 29.2977 1.87475V59.5488C29.2977 60.101 28.8499 60.5488 28.2977 60.5488H4.90625C4.35397 60.5488 3.90625 60.101 3.90625 59.5488V17.5627Z" fill="#FF78C0"/>
<path d="M17.5786 7.81268L23.4382 3.90631V56.6424H17.5786V7.81268Z" fill="white" fill-opacity="0.42"/>
<path d="M0 58.6424C0 57.5378 0.89543 56.6424 2 56.6424H31.2042C32.3087 56.6424 33.2042 57.5378 33.2042 58.6424V121.71C33.2042 122.521 32.7134 123.254 31.959 123.553C20.8221 127.958 13.7476 128.339 1.26115 123.545C0.497524 123.252 0 122.514 0 121.696V58.6424Z" fill="#FFE459"/>
</svg>
