<svg width="27" height="27" viewBox="0 0 27 27" fill="none" xmlns="http://www.w3.org/2000/svg">
<path d="M16.3081 0.919984C17.5225 -0.964499 20.4428 0.269424 19.9379 2.45372L18.1966 9.98787C18.0066 10.8098 18.3528 11.6625 19.0619 12.1194L25.5619 16.3081C27.4464 17.5225 26.2124 20.4428 24.0281 19.9379L16.494 18.1966C15.6721 18.0066 14.8194 18.3528 14.3625 19.0619L10.1738 25.5619C8.95937 27.4464 6.03911 26.2124 6.54395 24.0281L8.28527 16.494C8.47523 15.6721 8.12908 14.8194 7.42001 14.3625L0.919983 10.1738C-0.964501 8.95937 0.269422 6.03911 2.45372 6.54396L9.98787 8.28527C10.8098 8.47523 11.6625 8.12909 12.1194 7.42001L16.3081 0.919984Z" fill="#FFE459"/>
</svg>
