<svg width="25" height="25" viewBox="0 0 25 25" fill="none" xmlns="http://www.w3.org/2000/svg">
<path d="M1.23243 6.3846C-0.292365 4.74112 1.6267 2.2177 3.61778 3.24805L10.4855 6.80199C11.2347 7.18968 12.1465 7.06563 12.7649 6.49189L18.4337 1.23253C20.0772 -0.292264 22.6006 1.6268 21.5702 3.61788L18.0163 10.4856C17.6286 11.2348 17.7526 12.1466 18.3264 12.765L23.5857 18.4338C25.1105 20.0773 23.1915 22.6007 21.2004 21.5703L14.3327 18.0164C13.5835 17.6287 12.6716 17.7527 12.0532 18.3265L6.3845 23.5858C4.74102 25.1106 2.2176 23.1916 3.24795 21.2005L6.80189 14.3328C7.18958 13.5836 7.06553 12.6717 6.49179 12.0533L1.23243 6.3846Z" fill="#FFE459"/>
</svg>
