<svg width="18" height="18" viewBox="0 0 18 18" fill="none" xmlns="http://www.w3.org/2000/svg">
<path d="M4.09004 3.28619C3.46437 1.13339 6.31139 -0.261218 7.62882 1.55273L9.61566 4.28839C10.1114 4.97093 10.982 5.26906 11.7921 5.03364L15.0388 4.09004C17.1916 3.46436 18.5862 6.31139 16.7722 7.62881L14.0366 9.61566C13.354 10.1114 13.0559 10.982 13.2913 11.7921L14.2349 15.0388C14.8606 17.1916 12.0136 18.5862 10.6961 16.7722L8.70929 14.0366C8.21358 13.354 7.34292 13.0559 6.53289 13.2913L3.28619 14.2349C1.13339 14.8606 -0.261216 12.0136 1.55273 10.6961L4.28839 8.70929C4.97093 8.21358 5.26906 7.34292 5.03364 6.53288L4.09004 3.28619Z" fill="#FFE459"/>
</svg>
