<svg width="146" height="146" viewBox="0 0 146 146" fill="none" xmlns="http://www.w3.org/2000/svg">
<path d="M115.656 3.86758C126.788 -5.28632 142.244 7.99713 134.868 20.3786L109.426 63.0851C106.65 67.7439 107.096 73.6432 110.541 77.8317L142.115 116.227C151.269 127.359 137.985 142.815 125.604 135.439L82.8973 109.997C78.2385 107.222 72.3392 107.668 68.1506 111.112L29.7549 142.686C18.6233 151.84 3.16686 138.557 10.543 126.175L35.9851 83.4687C38.7606 78.8099 38.3145 72.9106 34.8702 68.722L3.29619 30.3263C-5.85772 19.1946 7.42573 3.73826 19.8072 11.1144L62.5137 36.5565C67.1725 39.332 73.0718 38.8859 77.2603 35.4416L115.656 3.86758Z" fill="#FFE459"/>
</svg>
