<svg width="18" height="18" viewBox="0 0 18 18" fill="none" xmlns="http://www.w3.org/2000/svg">
<path d="M4.09004 3.28622C3.46437 1.13342 6.31139 -0.261187 7.62882 1.55276L9.61566 4.28842C10.1114 4.97096 10.982 5.26909 11.7921 5.03367L15.0388 4.09007C17.1916 3.4644 18.5862 6.31142 16.7722 7.62884L14.0366 9.61569C13.354 10.1114 13.0559 10.9821 13.2913 11.7921L14.2349 15.0388C14.8606 17.1916 12.0136 18.5862 10.6961 16.7723L8.70929 14.0366C8.21358 13.3541 7.34292 13.0559 6.53289 13.2913L3.28619 14.2349C1.13339 14.8606 -0.261216 12.0136 1.55273 10.6962L4.28839 8.70932C4.97093 8.21361 5.26906 7.34295 5.03364 6.53291L4.09004 3.28622Z" fill="#FFE459"/>
</svg>
