<svg width="23" height="23" viewBox="0 0 23 23" fill="none" xmlns="http://www.w3.org/2000/svg">
<path d="M18.302 0.823859C20.0336 -0.600082 22.438 1.46623 21.2906 3.39223L17.3329 10.0355C16.9012 10.7602 16.9706 11.6778 17.5063 12.3294L22.4178 18.302C23.8418 20.0336 21.7755 22.438 19.8495 21.2906L13.2062 17.3329C12.4815 16.9012 11.5639 16.9705 10.9123 17.5063L4.93966 22.4178C3.20807 23.8418 0.803743 21.7755 1.95114 19.8495L5.9088 13.2062C6.34054 12.4815 6.27116 11.5639 5.73537 10.9123L0.823864 4.93966C-0.600077 3.20807 1.46624 0.803738 3.39224 1.95114L10.0355 5.9088C10.7602 6.34053 11.6778 6.27115 12.3294 5.73536L18.302 0.823859Z" fill="#FFE459"/>
</svg>
