<svg width="17" height="17" viewBox="0 0 17 17" fill="none" xmlns="http://www.w3.org/2000/svg">
<path d="M10.5304 0.69331C12.0662 -0.939872 14.7145 0.802883 13.8221 2.85951L12.4764 5.96116C12.1406 6.73501 12.3265 7.63634 12.941 8.21422L15.404 10.5304C17.0372 12.0662 15.2944 14.7145 13.2378 13.8221L10.1362 12.4763C9.36232 12.1406 8.46099 12.3264 7.88311 12.941L5.5669 15.404C4.03109 17.0372 1.38283 15.2944 2.27519 13.2378L3.62098 10.1362C3.95675 9.36231 3.77088 8.46099 3.15636 7.8831L0.693315 5.5669C-0.939867 4.03108 0.802888 1.38283 2.85951 2.27518L5.96117 3.62098C6.73502 3.95675 7.63634 3.77088 8.21423 3.15636L10.5304 0.69331Z" fill="#FFE459"/>
</svg>
