<svg width="18" height="18" viewBox="0 0 18 18" fill="none" xmlns="http://www.w3.org/2000/svg">
<path d="M9.94966 1.08495C11.1853 -0.785684 14.0914 0.481187 13.5619 2.65963L12.7633 5.94501C12.5641 6.7647 12.9006 7.62127 13.6044 8.0862L16.4256 9.94967C18.2962 11.1853 17.0293 14.0914 14.8509 13.5619L11.5655 12.7633C10.7458 12.5641 9.88925 12.9006 9.42433 13.6044L7.56086 16.4256C6.32524 18.2962 3.41912 17.0293 3.94863 14.8509L4.7472 11.5655C4.94644 10.7458 4.60996 9.88926 3.90609 9.42433L1.08494 7.56086C-0.785691 6.32525 0.48118 3.41913 2.65963 3.94864L5.945 4.74721C6.76469 4.94645 7.62126 4.60997 8.08619 3.9061L9.94966 1.08495Z" fill="#FFE459"/>
</svg>
