<svg width="26" height="26" viewBox="0 0 26 26" fill="none" xmlns="http://www.w3.org/2000/svg">
<path d="M4.5406 3.21344C3.70288 1.13396 6.39624 -0.538238 7.88838 1.13494L13.0351 6.90613C13.5966 7.5357 14.4927 7.74532 15.2751 7.4301L22.4477 4.5406C24.5272 3.70288 26.1994 6.39625 24.5262 7.88839L18.755 13.0351C18.1255 13.5966 17.9159 14.4927 18.2311 15.2751L21.1206 22.4477C21.9583 24.5272 19.2649 26.1994 17.7728 24.5262L12.626 18.755C12.0646 18.1255 11.1685 17.9159 10.386 18.2311L3.21344 21.1206C1.13396 21.9583 -0.538242 19.2649 1.13494 17.7728L6.90613 12.626C7.5357 12.0646 7.74531 11.1685 7.4301 10.386L4.5406 3.21344Z" fill="#FFE459"/>
</svg>
